<svg width="306" height="329" viewBox="0 0 306 329" fill="none" xmlns="http://www.w3.org/2000/svg">
<path d="M0.5 17V86.5C1.28466 89.8352 2.90062 91.9746 5.5 93H84.5C88.2875 91.7763 89.4392 90.3151 90 86.5V17C89.3512 12.6778 88.1304 11.1628 84.5 10H5.5C2.03292 11.6517 0.965795 13.2157 0.5 17Z" fill="white"/>
<path d="M0.5 211.5V281.5C0.702232 284.652 1.60628 286.019 4.5 287.5H85.5C88.8408 286.255 89.6232 284.882 89.5 281.5V211.5C89.3769 207.74 88.4536 206.347 85.5 205H4.5C1.27604 206.265 0.627183 207.861 0.5 211.5Z" fill="white"/>
<path d="M206 211.5V281.5C206.335 285.087 207.459 286.283 210.5 287.5H291.5C294.759 286.211 295.611 284.882 295.5 281.5V211.5C295.512 208.143 294.733 206.966 291.5 206.5H210.5C207.243 207.126 206.414 208.359 206 211.5Z" fill="white"/>
<path d="M103.5 114V183.5C103.396 187.013 104.124 188.346 107 189.5H188.5C191.374 188.422 192.443 187.295 192.5 183.5V114C192.265 110.395 191.361 109.233 188.5 108.5H107C104.224 109.453 103.526 110.718 103.5 114Z" fill="white"/>
<path d="M211 10C207.337 11.5453 206.426 13.1326 206.5 17V86.5C206.428 89.6331 207.499 91.0156 211 93H292C294.908 91.5411 295.965 90.2638 296 86.5V17C294.879 11.7908 293.075 10.4667 288.5 10H211Z" fill="white"/>
<path d="M168 272V326C168.636 328.47 169.481 328.821 172 327.5L186 308C187.323 305.419 188.606 304.427 192.5 304H213C216.236 302.62 216.054 301.373 213 298.5L172 270.5C169.739 269.685 168.873 269.993 168 272Z" fill="white"/>
<mask id="mask0_999_651" style="mask-type:luminance" maskUnits="userSpaceOnUse" x="6" y="0" width="94" height="87">
<path d="M99.1394 0.807129V86.1147H6.8064V0.807129H99.1394Z" fill="white" stroke="white" stroke-width="1.33333"/>
</mask>
<g mask="url(#mask0_999_651)">
<mask id="mask1_999_651" style="mask-type:luminance" maskUnits="userSpaceOnUse" x="6" y="0" width="94" height="87">
<path d="M14.9207 4.14014H91.1921C92.38 4.14014 93.5231 4.58272 94.3982 5.37646L94.5691 5.53955L94.572 5.5415C95.4677 6.43716 95.9705 7.65181 95.9705 8.92139V78.0337C95.9705 79.3047 95.4666 80.5219 94.572 81.4165C93.6769 82.3116 92.4594 82.8149 91.1921 82.8149H14.9207C13.7303 82.8149 12.5887 82.373 11.7126 81.5796L11.5408 81.4165C10.6438 80.5194 10.1394 79.3011 10.1394 78.0337V8.92139C10.1394 7.73453 10.5823 6.59256 11.3777 5.71436L11.5408 5.5415L11.5437 5.53955C12.4385 4.64308 13.6515 4.14014 14.9207 4.14014Z" fill="white" stroke="white" stroke-width="8"/>
</mask>
<g mask="url(#mask1_999_651)">
<path d="M11.3105 85.2939C12.4121 85.8453 13.6305 86.1318 14.9209 86.1318H16.4512V87.499H14.9209C13.0689 87.499 11.4605 87.0633 10.0195 86.1641L11.3105 85.2939ZM90.8965 86.1318L91.6035 87.4893C91.4674 87.4948 91.3303 87.499 91.1924 87.499H85.335V86.1318H90.8965ZM72.6514 86.1318V87.499H66.6016V86.1318H72.6514ZM53.918 86.1318V87.499H47.8682V86.1318H53.918ZM35.1846 86.1318V87.499H29.1348V86.1318H35.1846ZM100.654 72.8145V78.0342C100.654 78.4084 100.633 78.775 100.593 79.1348L99.2812 78.3262C99.2846 78.2291 99.2871 78.1317 99.2871 78.0342V72.8145H100.654ZM6.82227 68.4844V74.498L5.45605 74.5771V68.4844H6.82227ZM100.654 54.0811V60.1309H99.2871V54.0811H100.654ZM6.82227 49.751V55.8008H5.45605V49.751H6.82227ZM100.654 35.3477V41.3975H99.2871V35.3477H100.654ZM6.82227 31.0176V37.0674H5.45605V31.0176H6.82227ZM100.654 16.6143V22.6641H99.2871V16.6143H100.654ZM6.82227 12.334V18.334H5.45605V12.2334L6.82227 12.334ZM14.9209 -0.542969H24.9707V0.823242H14.9209C13.6749 0.823242 12.494 1.08871 11.4219 1.60449L10.1445 0.714844C11.5534 -0.1324 13.1224 -0.542969 14.9209 -0.542969ZM93.8535 -0.196289C95.2057 0.180486 96.4159 0.868286 97.5273 1.8877L97.8828 2.22754C98.4295 2.77425 98.8912 3.35271 99.2734 3.96582L97.7295 4.14258C97.4855 3.81167 97.2163 3.49458 96.918 3.19629L96.6221 2.91406C95.7994 2.16538 94.8664 1.61118 93.8535 1.26172V-0.196289ZM81.1709 -0.542969V0.823242H75.1211V-0.542969H81.1709ZM62.4375 -0.542969V0.823242H56.3877V-0.542969H62.4375ZM43.7041 -0.542969V0.823242H37.6543V-0.542969H43.7041Z" fill="#444444" stroke="#444444" stroke-width="8"/>
</g>
</g>
<mask id="mask2_999_651" style="mask-type:luminance" maskUnits="userSpaceOnUse" x="109" y="0" width="94" height="87">
<path d="M202.081 0.807129V86.1147H109.748V0.807129H202.081Z" fill="white" stroke="white" stroke-width="1.33333"/>
</mask>
<g mask="url(#mask2_999_651)">
<mask id="mask3_999_651" style="mask-type:luminance" maskUnits="userSpaceOnUse" x="109" y="0" width="94" height="87">
<path d="M117.863 0.807129H194.131C196.149 0.807129 198.088 1.55732 199.575 2.90674L199.867 3.18408L199.868 3.18506C201.392 4.70626 202.246 6.76863 202.246 8.92139V78.0337C202.246 80.0523 201.495 81.9938 200.146 83.4819L199.868 83.7729L199.867 83.7739C198.346 85.295 196.284 86.1489 194.131 86.1489H117.863C115.844 86.1489 113.902 85.3985 112.414 84.0513L112.123 83.7739C110.602 82.2528 109.748 80.1868 109.748 78.0337V8.92139C109.748 6.90297 110.498 4.96412 111.846 3.47607L112.123 3.18506V3.18408C113.644 1.6603 115.71 0.807129 117.863 0.807129Z" fill="white" stroke="white" stroke-width="1.33333"/>
</mask>
<g mask="url(#mask3_999_651)">
<path d="M114.334 81.2383L114.495 81.4053C115.419 82.3295 116.555 82.7988 117.863 82.7988H122.724V90.832H117.863C114.32 90.832 111.318 89.589 108.812 87.0859H108.813C108.39 86.6605 107.998 86.2088 107.638 85.7314L114.323 81.2246C114.327 81.2291 114.33 81.2338 114.334 81.2383ZM199.441 89.6777C197.765 90.4474 195.999 90.832 194.131 90.832H184.941V82.7988H194.131C194.68 82.7988 195.21 82.7066 195.719 82.5254L199.441 89.6777ZM178.923 82.7988V90.832H166.208V82.7988H178.923ZM160.191 82.7988V90.832H147.474V82.7988H160.191ZM141.458 82.7988V90.832H128.741V82.7988H141.458ZM206.929 69.4805V78.0342C206.929 80.2326 206.406 82.2762 205.36 84.1748L198.498 79.9453C198.762 79.3459 198.896 78.7062 198.896 78.0342V69.4805H206.929ZM113.098 65.1514V77.6426L105.066 78.1094C105.066 78.0844 105.065 78.0593 105.065 78.0342V65.1514H113.098ZM206.929 50.7471V63.4639H198.896V50.7471H206.929ZM113.098 46.418V59.1348H105.065V46.418H113.098ZM206.929 32.0137V44.7305H198.896V32.0137H206.929ZM113.098 27.6846V40.4014H105.065V27.6846H113.098ZM206.929 13.2803V25.9971H198.896V13.2803H206.929ZM113.098 9.2373V21.668H105.065V8.92188C105.065 8.83003 105.068 8.73771 105.07 8.64551L113.098 9.2373ZM194.131 -3.87598C197.674 -3.87598 200.676 -2.63238 203.182 -0.128906V-0.129883C205.128 1.81881 206.315 4.12331 206.751 6.7998L198.742 7.71875C198.549 6.96318 198.183 6.2881 197.642 5.70215L197.5 5.55371C196.575 4.62619 195.439 4.15723 194.131 4.15723H193.462V-3.87598H194.131ZM117.863 -3.87598H131.246V4.15723H117.863C116.557 4.15723 115.422 4.62496 114.499 5.5498C114.456 5.59174 114.415 5.63472 114.375 5.67773L107.759 1.06738C108.085 0.648631 108.435 0.249538 108.811 -0.128906C111.318 -2.63247 114.32 -3.87598 117.863 -3.87598ZM187.446 -3.87598V4.15723H174.729V-3.87598H187.446ZM168.712 -3.87598V4.15723H155.996V-3.87598H168.712ZM149.979 -3.87598V4.15723H137.262V-3.87598H149.979Z" fill="#444444" stroke="#444444" stroke-width="1.33333"/>
</g>
</g>
<mask id="mask4_999_651" style="mask-type:luminance" maskUnits="userSpaceOnUse" x="212" y="0" width="94" height="87">
<path d="M305.02 0.807129V86.1147H212.687V0.807129H305.02Z" fill="white" stroke="white" stroke-width="1.33333"/>
</mask>
<g mask="url(#mask4_999_651)">
<mask id="mask5_999_651" style="mask-type:luminance" maskUnits="userSpaceOnUse" x="212" y="0" width="94" height="87">
<path d="M220.801 0.807129H297.073C299.088 0.807129 301.03 1.55711 302.518 2.90674L302.809 3.18408L302.81 3.18506C304.331 4.70638 305.185 6.76871 305.185 8.92139V78.0337C305.185 80.1867 304.331 82.2528 302.81 83.7739C301.289 85.2952 299.223 86.1489 297.073 86.1489H220.801C218.786 86.1489 216.844 85.3986 215.356 84.0513L215.065 83.7739C213.543 82.2523 212.687 80.1862 212.687 78.0337V8.92139C212.687 6.90351 213.439 4.96449 214.788 3.47607L215.065 3.18506V3.18408C216.586 1.66018 218.651 0.807129 220.801 0.807129Z" fill="white" stroke="white" stroke-width="1.33333"/>
</mask>
<g mask="url(#mask5_999_651)">
<path d="M217.274 81.2373L217.429 81.4014L217.433 81.4053C218.358 82.3295 219.494 82.7988 220.802 82.7988H225.666V90.832H220.802C217.483 90.832 214.635 89.739 212.229 87.54L211.754 87.085C211.329 86.6601 210.937 86.2089 210.579 85.7324L217.263 81.2256C217.267 81.2295 217.271 81.2334 217.274 81.2373ZM302.383 89.6777C300.706 90.4474 298.938 90.832 297.073 90.832H287.883V82.7988H297.073C297.621 82.7988 298.15 82.7072 298.658 82.5264L302.383 89.6777ZM281.866 82.7988V90.832H269.149V82.7988H281.866ZM263.133 82.7988V90.832H250.416V82.7988H263.133ZM244.399 82.7988V90.832H231.682V82.7988H244.399ZM309.868 69.4805V78.0342C309.868 80.2326 309.345 82.2762 308.299 84.1748L301.437 79.9453C301.702 79.3447 301.835 78.7049 301.835 78.0342V69.4805H309.868ZM216.037 65.1514V77.6426L208.005 78.1094C208.004 78.0844 208.004 78.0592 208.004 78.0342V65.1514H216.037ZM309.868 50.7471V63.4639H301.835V50.7471H309.868ZM216.037 46.418V59.1348H208.004V46.418H216.037ZM309.868 32.0137V44.7305H301.835V32.0137H309.868ZM216.037 27.6846V40.4014H208.004V27.6846H216.037ZM309.868 13.2803V25.9971H301.835V13.2803H309.868ZM216.037 9.2373V21.668H208.004V8.92188C208.004 8.83003 208.007 8.73771 208.009 8.64551L216.037 9.2373ZM297.073 -3.87598C300.392 -3.87598 303.24 -2.78304 305.645 -0.583984L306.121 -0.128906C308.069 1.81927 309.254 4.12288 309.693 6.7998L301.684 7.71875C301.492 6.96307 301.125 6.28817 300.584 5.70215L300.441 5.55371C299.517 4.62623 298.38 4.15723 297.073 4.15723H296.401V-3.87598H297.073ZM220.802 -3.87598H234.184V4.15723H220.802C219.494 4.15723 218.358 4.62627 217.433 5.55371C217.393 5.59401 217.353 5.63496 217.314 5.67676L210.701 1.06738C210.911 0.796484 211.13 0.533598 211.362 0.280273L211.754 -0.128906C214.257 -2.63211 217.261 -3.87598 220.802 -3.87598ZM290.385 -3.87598V4.15723H277.668V-3.87598H290.385ZM271.651 -3.87598V4.15723H258.934V-3.87598H271.651ZM252.918 -3.87598V4.15723H240.201V-3.87598H252.918Z" fill="#444444" stroke="#444444" stroke-width="1.33333"/>
</g>
</g>
<mask id="mask6_999_651" style="mask-type:luminance" maskUnits="userSpaceOnUse" x="6" y="97" width="94" height="88">
<path d="M99.1394 98.3276V183.632H6.8064V98.3276H99.1394Z" fill="white" stroke="white" stroke-width="1.33333"/>
</mask>
<g mask="url(#mask6_999_651)">
<mask id="mask7_999_651" style="mask-type:luminance" maskUnits="userSpaceOnUse" x="6" y="97" width="94" height="88">
<path d="M14.9207 98.3276H91.1921C93.2077 98.3276 95.1492 99.0779 96.6375 100.425L96.9294 100.703C98.4504 102.224 99.3044 104.289 99.3044 106.442V175.554C99.3044 177.572 98.5536 179.512 97.2058 181.002L96.9285 181.294C95.4072 182.815 93.3418 183.669 91.1921 183.669H14.9207C12.9024 183.669 10.9634 182.919 9.47534 181.572L9.18433 181.294C7.6622 179.769 6.8064 177.706 6.8064 175.554V106.442C6.8064 104.424 7.55897 102.482 8.90698 100.994L9.18433 100.703C10.7057 99.1813 12.7678 98.3276 14.9207 98.3276Z" fill="white" stroke="white" stroke-width="1.33333"/>
</mask>
<g mask="url(#mask7_999_651)">
<path d="M11.3828 178.743C11.4378 178.804 11.4941 178.863 11.5518 178.921V178.922C12.4763 179.85 13.6132 180.319 14.9209 180.319H19.7852V188.353H14.9209C11.6023 188.353 8.75416 187.26 6.34863 185.061L5.87305 184.605C5.44815 184.181 5.05671 183.729 4.69824 183.253L11.3828 178.743ZM96.502 187.198C94.8253 187.968 93.0573 188.353 91.1924 188.353H82.002V180.319H91.1924C91.7418 180.319 92.2711 180.226 92.7773 180.046L96.502 187.198ZM75.9854 180.319V188.353H63.2686V180.319H75.9854ZM57.252 180.319V188.353H44.5352V180.319H57.252ZM38.5186 180.319V188.353H25.8018V180.319H38.5186ZM103.987 167.001V175.555C103.987 177.753 103.464 179.795 102.418 181.695L95.5566 177.466C95.8219 176.865 95.9541 176.226 95.9541 175.555V167.001H103.987ZM10.1562 162.672V175.163L2.12402 175.63C2.12385 175.605 2.12305 175.58 2.12305 175.555V162.672H10.1562ZM103.987 148.268V160.984H95.9541V148.268H103.987ZM10.1562 143.938V156.655H2.12305V143.938H10.1562ZM103.987 129.534V142.251H95.9541V129.534H103.987ZM10.1562 125.205V137.922H2.12305V125.205H10.1562ZM103.987 110.801V123.518H95.9541V110.801H103.987ZM10.1562 106.758V119.188H2.12305V106.442C2.12305 106.35 2.12595 106.258 2.12793 106.166L10.1562 106.758ZM91.1924 93.6445C94.511 93.6445 97.3591 94.7375 99.7646 96.9365L100.24 97.3916C102.189 99.34 103.373 101.644 103.81 104.318L95.8037 105.239C95.6116 104.483 95.2446 103.806 94.7031 103.22L94.5605 103.071L94.5596 103.07L94.3838 102.902C93.4912 102.09 92.4189 101.678 91.1924 101.678H90.5205V93.6445H91.1924ZM14.9209 93.6445H28.3037V101.678H14.9209C13.6951 101.678 12.6197 102.09 11.7285 102.903L11.5527 103.071L11.5488 103.075C11.5098 103.115 11.4706 103.155 11.4326 103.196L4.82031 98.5879C5.03043 98.317 5.24979 98.0541 5.48145 97.8008L5.87305 97.3916C8.37625 94.8884 11.3809 93.6445 14.9209 93.6445ZM84.5039 93.6445V101.678H71.7871V93.6445H84.5039ZM65.7705 93.6445V101.678H53.0537V93.6445H65.7705ZM47.0371 93.6445V101.678H34.3203V93.6445H47.0371Z" fill="#444444" stroke="#444444" stroke-width="1.33333"/>
</g>
</g>
<mask id="mask8_999_651" style="mask-type:luminance" maskUnits="userSpaceOnUse" x="109" y="97" width="94" height="88">
<path d="M202.081 98.3276V183.632H109.748V98.3276H202.081Z" fill="white" stroke="white" stroke-width="1.33333"/>
</mask>
<g mask="url(#mask8_999_651)">
<mask id="mask9_999_651" style="mask-type:luminance" maskUnits="userSpaceOnUse" x="109" y="97" width="94" height="88">
<path d="M117.863 98.3276H194.131C196.149 98.3276 198.088 99.0778 199.576 100.425L199.867 100.703H199.868C201.392 102.224 202.246 104.289 202.246 106.442V175.554C202.246 177.707 201.392 179.77 199.867 181.294C198.346 182.816 196.284 183.669 194.131 183.669H117.863C115.844 183.669 113.902 182.919 112.414 181.572L112.123 181.294C110.602 179.77 109.748 177.707 109.748 175.554V106.442C109.748 104.423 110.499 102.482 111.846 100.994L112.123 100.703C113.644 99.1815 115.709 98.3276 117.863 98.3276Z" fill="white" stroke="white" stroke-width="1.33333"/>
</mask>
<g mask="url(#mask9_999_651)">
<path d="M114.323 178.743C114.378 178.804 114.435 178.863 114.494 178.921V178.922C115.418 179.85 116.555 180.319 117.863 180.319H122.724V188.353H117.863C114.32 188.353 111.318 187.109 108.812 184.606H108.813C108.39 184.181 107.998 183.729 107.638 183.252L114.323 178.743ZM199.441 187.198C197.765 187.968 195.999 188.353 194.131 188.353H184.941V180.319H194.131C194.682 180.319 195.211 180.225 195.718 180.045L199.441 187.198ZM178.923 180.319V188.353H166.208V180.319H178.923ZM160.191 180.319V188.353H147.474V180.319H160.191ZM141.458 180.319V188.353H128.741V180.319H141.458ZM206.929 167.001V175.555C206.929 177.753 206.406 179.795 205.36 181.695L198.498 177.465C198.762 176.866 198.896 176.227 198.896 175.555V167.001H206.929ZM113.098 162.672V175.163L105.066 175.63C105.066 175.605 105.065 175.58 105.065 175.555V162.672H113.098ZM206.929 148.268V160.984H198.896V148.268H206.929ZM113.098 143.938V156.655H105.065V143.938H113.098ZM206.929 129.534V142.251H198.896V129.534H206.929ZM113.098 125.205V137.922H105.065V125.205H113.098ZM206.929 110.801V123.518H198.896V110.801H206.929ZM113.098 106.758V119.188H105.065V106.442C105.065 106.35 105.068 106.258 105.07 106.166L113.098 106.758ZM194.131 93.6445C197.674 93.6445 200.676 94.8881 203.182 97.3916V97.3906C205.128 99.3395 206.315 101.644 206.751 104.318L198.743 105.239C198.551 104.483 198.184 103.806 197.642 103.22L197.5 103.071C196.575 102.147 195.439 101.678 194.131 101.678H193.462V93.6445H194.131ZM117.863 93.6445H131.246V101.678H117.863C116.637 101.678 115.562 102.09 114.67 102.903L114.495 103.071C114.453 103.113 114.412 103.155 114.373 103.197L107.759 98.5879C108.085 98.1691 108.435 97.77 108.811 97.3916C111.318 94.888 114.32 93.6445 117.863 93.6445ZM187.446 93.6445V101.678H174.729V93.6445H187.446ZM168.712 93.6445V101.678H155.996V93.6445H168.712ZM149.979 93.6445V101.678H137.262V93.6445H149.979Z" fill="#444444" stroke="#444444" stroke-width="1.33333"/>
</g>
</g>
<mask id="mask10_999_651" style="mask-type:luminance" maskUnits="userSpaceOnUse" x="212" y="97" width="94" height="88">
<path d="M305.02 98.3276V183.632H212.687V98.3276H305.02Z" fill="white" stroke="white" stroke-width="1.33333"/>
</mask>
<g mask="url(#mask10_999_651)">
<mask id="mask11_999_651" style="mask-type:luminance" maskUnits="userSpaceOnUse" x="212" y="97" width="94" height="88">
<path d="M220.801 98.3276H297.073C299.088 98.3276 301.03 99.0779 302.518 100.425L302.81 100.703C304.331 102.224 305.185 104.289 305.185 106.442V175.554C305.185 177.572 304.434 179.512 303.086 181.002L302.809 181.294C301.288 182.815 299.222 183.669 297.073 183.669H220.801C218.786 183.669 216.844 182.919 215.356 181.572L215.065 181.294C213.543 179.769 212.687 177.706 212.687 175.554V106.442C212.687 104.424 213.44 102.482 214.788 100.994L215.065 100.703C216.586 99.1814 218.651 98.3276 220.801 98.3276Z" fill="white" stroke="white" stroke-width="1.33333"/>
</mask>
<g mask="url(#mask11_999_651)">
<path d="M217.263 178.743C217.318 178.804 217.375 178.863 217.432 178.921V178.922C218.357 179.85 219.494 180.319 220.802 180.319H225.666V188.353H220.802C217.483 188.353 214.635 187.26 212.229 185.061L211.754 184.605C211.329 184.181 210.937 183.729 210.579 183.253L217.263 178.743ZM302.383 187.198C300.706 187.968 298.938 188.353 297.073 188.353H287.883V180.319H297.073C297.622 180.319 298.152 180.226 298.658 180.046L302.383 187.198ZM281.866 180.319V188.353H269.149V180.319H281.866ZM263.133 180.319V188.353H250.416V180.319H263.133ZM244.399 180.319V188.353H231.682V180.319H244.399ZM309.868 167.001V175.555C309.868 177.753 309.345 179.795 308.299 181.695L301.437 177.466C301.703 176.865 301.835 176.226 301.835 175.555V167.001H309.868ZM216.037 162.672V175.163L208.005 175.63C208.004 175.605 208.004 175.58 208.004 175.555V162.672H216.037ZM309.868 148.268V160.984H301.835V148.268H309.868ZM216.037 143.938V156.655H208.004V143.938H216.037ZM309.868 129.534V142.251H301.835V129.534H309.868ZM216.037 125.205V137.922H208.004V125.205H216.037ZM309.868 110.801V123.518H301.835V110.801H309.868ZM216.037 106.758V119.188H208.004V106.442C208.004 106.35 208.007 106.258 208.009 106.166L216.037 106.758ZM297.073 93.6445C300.392 93.6445 303.24 94.7375 305.645 96.9365L306.121 97.3916C308.069 99.3399 309.254 101.644 309.692 104.318L301.684 105.239C301.492 104.483 301.125 103.806 300.584 103.22L300.441 103.071C299.517 102.147 298.38 101.678 297.073 101.678H296.401V93.6445H297.073ZM220.802 93.6445H234.184V101.678H220.802C219.576 101.678 218.5 102.09 217.609 102.903L217.433 103.071L217.429 103.075C217.39 103.115 217.351 103.155 217.313 103.196L210.701 98.5879C210.911 98.317 211.13 98.0541 211.362 97.8008L211.754 97.3916C214.257 94.8884 217.261 93.6445 220.802 93.6445ZM290.385 93.6445V101.678H277.668V93.6445H290.385ZM271.651 93.6445V101.678H258.934V93.6445H271.651ZM252.918 93.6445V101.678H240.201V93.6445H252.918Z" fill="#444444" stroke="#444444" stroke-width="1.33333"/>
</g>
</g>
<mask id="mask12_999_651" style="mask-type:luminance" maskUnits="userSpaceOnUse" x="6" y="195" width="94" height="87">
<path d="M99.1394 195.849V281.153H6.8064V195.849H99.1394Z" fill="white" stroke="white" stroke-width="1.33333"/>
</mask>
<g mask="url(#mask12_999_651)">
<mask id="mask13_999_651" style="mask-type:luminance" maskUnits="userSpaceOnUse" x="6" y="195" width="94" height="87">
<path d="M14.9207 195.849H91.1921C93.2077 195.849 95.1492 196.599 96.6375 197.946L96.9294 198.224C98.4504 199.745 99.3044 201.81 99.3044 203.963V273.075C99.3044 275.228 98.4508 277.291 96.9294 278.812C95.4078 280.334 93.3414 281.19 91.1921 281.19H14.9207C12.9029 281.19 10.9637 280.438 9.47534 279.09L9.18433 278.812C7.66256 277.291 6.8064 275.227 6.8064 273.075V203.963C6.8064 201.945 7.55897 200.003 8.90698 198.515L9.18433 198.224C10.7057 196.702 12.7678 195.849 14.9207 195.849Z" fill="white" stroke="white" stroke-width="1.33333"/>
</mask>
<g mask="url(#mask13_999_651)">
<path d="M11.3828 276.264C11.4378 276.325 11.4941 276.384 11.5518 276.442V276.443C12.4763 277.371 13.6132 277.84 14.9209 277.84H19.7852V285.874H14.9209C11.6021 285.874 8.75418 284.78 6.34863 282.579L5.87305 282.124L5.87207 282.123L5.44629 281.678C5.18225 281.389 4.93271 281.087 4.69727 280.774L11.3828 276.264ZM96.502 284.718C94.8246 285.487 93.0566 285.874 91.1924 285.874H82.002V277.84H91.1924C91.7418 277.84 92.2711 277.747 92.7773 277.567L96.502 284.718ZM75.9854 277.84V285.874H63.2686V277.84H75.9854ZM57.252 277.84V285.874H44.5352V277.84H57.252ZM38.5186 277.84V285.874H25.8018V277.84H38.5186ZM103.987 264.522V273.076C103.987 275.274 103.464 277.315 102.418 279.215L95.5566 274.984C95.8216 274.384 95.9541 273.747 95.9541 273.076V264.522H103.987ZM10.1562 260.193V272.684L2.12402 273.151C2.12385 273.126 2.12305 273.101 2.12305 273.076V260.193H10.1562ZM103.987 245.789V258.505H95.9541V245.789H103.987ZM10.1562 241.459V254.176H2.12305V241.459H10.1562ZM103.987 227.055V239.772H95.9541V227.055H103.987ZM10.1562 222.726V235.443H2.12305V222.726H10.1562ZM103.987 208.322V221.039H95.9541V208.322H103.987ZM10.1562 204.279V216.709H2.12305V203.963C2.12305 203.871 2.12595 203.779 2.12793 203.687L10.1562 204.279ZM91.1924 191.166C94.511 191.166 97.3591 192.258 99.7646 194.458L100.24 194.913C102.189 196.861 103.373 199.165 103.81 201.839L95.8037 202.76C95.6116 202.004 95.2446 201.327 94.7031 200.741L94.5605 200.592L94.5596 200.591L94.3838 200.423C93.4912 199.611 92.4189 199.199 91.1924 199.199H90.5205V191.166H91.1924ZM14.9209 191.166H28.3037V199.199H14.9209C13.6951 199.199 12.6197 199.611 11.7285 200.424L11.5527 200.592C11.5119 200.633 11.472 200.675 11.4326 200.717L4.82031 196.107C5.03034 195.837 5.25002 195.575 5.48145 195.322L5.87305 194.913C8.37625 192.409 11.3809 191.166 14.9209 191.166ZM84.5039 191.166V199.199H71.7871V191.166H84.5039ZM65.7705 191.166V199.199H53.0537V191.166H65.7705ZM47.0371 191.166V199.199H34.3203V191.166H47.0371Z" fill="#444444" stroke="#444444" stroke-width="1.33333"/>
</g>
</g>
<mask id="mask14_999_651" style="mask-type:luminance" maskUnits="userSpaceOnUse" x="212" y="195" width="94" height="87">
<path d="M305.02 195.849V281.153H212.687V195.849H305.02Z" fill="white" stroke="white" stroke-width="1.33333"/>
</mask>
<g mask="url(#mask14_999_651)">
<mask id="mask15_999_651" style="mask-type:luminance" maskUnits="userSpaceOnUse" x="212" y="195" width="94" height="87">
<path d="M220.801 195.849H297.073C299.088 195.849 301.03 196.599 302.518 197.946L302.81 198.224C304.331 199.745 305.185 201.81 305.185 203.963V273.075C305.185 275.228 304.331 277.291 302.81 278.812C301.288 280.334 299.222 281.19 297.073 281.19H220.801C218.786 281.19 216.845 280.438 215.356 279.09L215.065 278.812C213.543 277.291 212.687 275.227 212.687 273.075V203.963C212.687 201.945 213.44 200.003 214.788 198.515L215.065 198.224C216.586 196.702 218.651 195.849 220.801 195.849Z" fill="white" stroke="white" stroke-width="1.33333"/>
</mask>
<g mask="url(#mask15_999_651)">
<path d="M217.263 276.264C217.318 276.325 217.375 276.384 217.432 276.442V276.443C218.357 277.371 219.494 277.84 220.802 277.84H225.666V285.874H220.802C217.483 285.874 214.635 284.78 212.229 282.579L211.754 282.124L211.753 282.123L211.327 281.678C211.063 281.389 210.813 281.087 210.578 280.774L217.263 276.264ZM302.383 284.718C300.705 285.487 298.937 285.874 297.073 285.874H287.883V277.84H297.073C297.622 277.84 298.152 277.747 298.658 277.567L302.383 284.718ZM281.866 277.84V285.874H269.149V277.84H281.866ZM263.133 277.84V285.874H250.416V277.84H263.133ZM244.399 277.84V285.874H231.682V277.84H244.399ZM309.868 264.522V273.076C309.868 275.274 309.345 277.315 308.299 279.215L301.437 274.984C301.702 274.384 301.835 273.747 301.835 273.076V264.522H309.868ZM216.037 260.193V272.684L208.005 273.151C208.004 273.126 208.004 273.101 208.004 273.076V260.193H216.037ZM309.868 245.789V258.505H301.835V245.789H309.868ZM216.037 241.459V254.176H208.004V241.459H216.037ZM309.868 227.055V239.772H301.835V227.055H309.868ZM216.037 222.726V235.443H208.004V222.726H216.037ZM309.868 208.322V221.039H301.835V208.322H309.868ZM216.037 204.279V216.709H208.004V203.963C208.004 203.871 208.007 203.779 208.009 203.687L216.037 204.279ZM297.073 191.166C300.392 191.166 303.24 192.258 305.645 194.458L306.121 194.913C308.069 196.861 309.254 199.165 309.692 201.839L301.684 202.76C301.492 202.004 301.125 201.327 300.584 200.741L300.441 200.592C299.517 199.668 298.38 199.199 297.073 199.199H296.401V191.166H297.073ZM220.802 191.166H234.184V199.199H220.802C219.576 199.199 218.5 199.611 217.609 200.424L217.433 200.592C217.392 200.633 217.353 200.675 217.313 200.717L210.701 196.107C210.911 195.837 211.131 195.575 211.362 195.322L211.754 194.913C214.257 192.409 217.261 191.166 220.802 191.166ZM290.385 191.166V199.199H277.668V191.166H290.385ZM271.651 191.166V199.199H258.934V191.166H271.651ZM252.918 191.166V199.199H240.201V191.166H252.918Z" fill="#444444" stroke="#444444" stroke-width="1.33333"/>
</g>
</g>
<path d="M175.919 323.979V260.297" stroke="#444444" stroke-width="8" stroke-linecap="round"/>
<path d="M229.741 296.175L176.096 260.202" stroke="#444444" stroke-width="8" stroke-linecap="round"/>
<path d="M176.377 323.814L196.165 297.178" stroke="#444444" stroke-width="8" stroke-linecap="round"/>
<path d="M229.57 296.654L196.57 296.654" stroke="#444444" stroke-width="8" stroke-linecap="round"/>
<path d="M174.983 279.521H117.893C114.335 279.521 111.453 276.64 111.453 273.081V203.975C111.453 200.42 114.335 197.535 117.893 197.535H194.022C197.58 197.535 200.461 200.42 200.461 203.975V275.298" stroke="#444444" stroke-width="8"/>
</svg>
