<svg width="624" height="624" viewBox="0 0 624 624" fill="none" xmlns="http://www.w3.org/2000/svg">
<path d="M249.5 227C240.08 218.847 235.9 210.627 231 193C229.015 180.047 230.039 172.448 235 158.5C240.66 150.413 244.923 146.576 254.5 141C262.954 136.95 268.253 135.341 279 134C296.962 121.521 308.201 115.855 330.5 108.5C349.193 104.757 359.511 103.991 377.5 106C393.291 108.187 401.681 110.632 415.5 118C432.972 130.996 441.738 139.179 456 155C474.025 173.53 483.038 185.382 498 208C517.479 239.164 527.571 257.059 543.5 290L565 342.5C559.222 359.93 554.499 369.275 543.5 385.5C525.122 406.956 514.106 417.476 493 433C465.799 446.855 450.273 452.895 422 460C404.52 464.924 394.788 466.31 377.5 467C384.99 458.293 388.775 453.189 393.5 443C399.794 426.574 402.613 416.851 405.5 398C407.968 378.024 408.376 366.407 407.5 345C407.436 324.889 406.965 313.48 405.5 293C405.128 284.19 404.311 279.124 402.5 270C408.35 270.406 411.451 269.364 416.5 264C418.71 258.439 419.335 255.109 418.5 248.5C417.17 239.465 416.045 234.551 411 227C404.819 223.573 401.439 223.359 395.5 224.5C385.467 228.707 379.278 229.81 367 229C356.553 225.349 350.819 222.22 341 213C338.045 207.675 336.538 204.698 335.5 199.5C325.541 201.94 320.1 201.521 310.5 199.5C300.963 196.073 295.799 192.932 287 184.5C281.701 174.458 279.811 168.754 278 158.5C270.24 159.326 267.046 161.424 263 167.5C257.209 176.335 254.17 181.749 251.5 197.5C249.808 207.843 249.543 214.523 249.5 227Z" fill="#A9DFFF"/>
<path d="M258.646 326.05C256.554 321.151 254.519 313.558 252.552 303.269" stroke="#444444" stroke-width="10" stroke-linecap="round"/>
<path d="M225.652 306.286C233.604 283.038 237.24 253.903 236.559 218.877" stroke="#444444" stroke-width="10" stroke-linecap="round"/>
<path d="M225.828 307.271L252.42 302.795" stroke="#444444" stroke-width="10" stroke-linecap="round"/>
<path d="M260.054 326.28L282.642 320.226" stroke="#444444" stroke-width="9.99999" stroke-linecap="round"/>
<path d="M283.468 320.741C286.027 330.989 283.383 339.662 275.542 346.758" stroke="#444444" stroke-width="10" stroke-linecap="round"/>
<path d="M385.548 344.818C341.135 382.18 304.298 382.877 275.038 346.911" stroke="#444444" stroke-width="10" stroke-linecap="round"/>
<path d="M236.461 219.314C237.555 196.815 246.258 179.827 262.573 168.343" stroke="#444444" stroke-width="10" stroke-linecap="round"/>
<path d="M317.782 212.262C284.179 214.537 265.877 198.893 262.871 165.32" stroke="#444444" stroke-width="10" stroke-linecap="round"/>
<path d="M377.738 239.369C345.204 245.883 325.728 232.849 319.306 200.268" stroke="#444444" stroke-width="9.99999" stroke-linecap="round"/>
<path d="M403.24 257.024C406.734 275.539 399.74 283.373 382.254 280.529" stroke="#444444" stroke-width="10" stroke-linecap="round"/>
<path d="M378.964 239.136C392.096 233.052 400.234 238.956 403.383 256.852" stroke="#444444" stroke-width="9.99999" stroke-linecap="round"/>
<path d="M234.64 242.047C203.555 191.107 212.723 158.874 262.14 145.346" stroke="#444444" stroke-width="9.99999" stroke-linecap="round"/>
<path d="M264.198 144.51C331.222 107.724 383.395 107.626 420.719 144.212" stroke="#444444" stroke-width="10" stroke-linecap="round"/>
<path d="M418.265 142.045C476.562 196.513 520.887 267.84 551.24 356.034" stroke="#444444" stroke-width="10" stroke-linecap="round"/>
<path d="M360.835 478.607C390.857 454.536 400.39 389.248 389.438 282.74" stroke="#444444" stroke-width="10" stroke-linecap="round"/>
<path d="M360.35 364.935C370.51 376.577 380.673 388.223 390.833 399.869" stroke="#444444" stroke-width="10" stroke-linecap="round"/>
<path d="M361.474 478.63C456.564 472.063 519.837 431.187 551.291 356.011" stroke="#444444" stroke-width="10" stroke-linecap="round"/>
<mask id="mask0_852_776" style="mask-type:luminance" maskUnits="userSpaceOnUse" x="264" y="254" width="11" height="12">
<path d="M264.09 254.6H274.987V265.498H264.09V254.6Z" fill="white"/>
</mask>
<g mask="url(#mask0_852_776)">
<mask id="mask1_852_776" style="mask-type:luminance" maskUnits="userSpaceOnUse" x="264" y="254" width="11" height="12">
<path d="M269.54 254.6C266.53 254.6 264.09 257.038 264.09 260.047C264.09 263.057 266.53 265.498 269.54 265.498C272.55 265.498 274.987 263.057 274.987 260.047C274.987 257.038 272.55 254.6 269.54 254.6Z" fill="white"/>
</mask>
<g mask="url(#mask1_852_776)">
<path d="M264.09 254.6H274.987V265.498H264.09V254.6Z" fill="#444444"/>
</g>
</g>
<path d="M262.086 229.599C269.181 225.902 275.81 226.616 281.971 231.742" stroke="#444444" stroke-width="10" stroke-linecap="round"/>
<path d="M259.523 367.358C242.816 360.625 234.092 348.248 233.36 330.234" stroke="#444444" stroke-width="10" stroke-linecap="round"/>
<path d="M255.318 388.121C225.838 380.619 210.664 361.654 209.794 331.226" stroke="#444444" stroke-width="10" stroke-linecap="round"/>
<path d="M249.014 410.522C204.869 402.201 182.542 375.571 182.034 330.63" stroke="#444444" stroke-width="9.99999" stroke-linecap="round"/>
</svg>
