<svg width="1728" height="1235" viewBox="0 0 1728 1235" fill="none" xmlns="http://www.w3.org/2000/svg">
<g opacity="0.9">
<path d="M643.536 209.271C688.713 209.271 729.486 250.183 758.412 315.861C733.986 269.535 702.342 241.582 667.769 241.582C590.441 241.582 527.754 381.422 527.754 553.925C527.754 726.427 590.441 866.268 667.769 866.269C702.343 866.269 733.987 838.314 758.413 791.986C729.486 857.667 688.714 898.581 643.536 898.581C555.798 898.581 484.672 744.273 484.672 553.926C484.672 363.578 555.798 209.271 643.536 209.271Z" fill="white"/>
<path d="M1084.47 895.586C1039.29 895.586 998.517 854.674 969.591 788.997C994.016 835.322 1025.66 863.275 1060.23 863.275C1137.56 863.274 1200.25 723.433 1200.25 550.931C1200.25 378.429 1137.56 238.589 1060.23 238.588C1025.66 238.588 994.016 266.541 969.591 312.867C998.517 247.189 1039.29 206.276 1084.47 206.276C1172.2 206.276 1243.33 360.584 1243.33 550.931C1243.33 741.279 1172.2 895.586 1084.47 895.586Z" fill="white"/>
<path d="M483.518 63.8701C547.505 63.8701 605.255 121.813 646.228 214.832C611.631 149.224 566.81 109.638 517.844 109.638C408.31 109.638 319.515 307.719 319.515 552.063C319.515 796.408 408.31 994.488 517.844 994.488C566.813 994.488 611.635 954.897 646.232 889.282C605.259 982.309 547.508 1040.26 483.518 1040.26C359.239 1040.26 258.491 821.685 258.491 552.063C258.491 282.442 359.239 63.8705 483.518 63.8701Z" fill="white"/>
<path d="M1244.48 1040.99C1180.5 1040.99 1122.75 983.046 1081.78 890.03C1116.37 955.635 1161.19 995.219 1210.16 995.219C1319.69 995.218 1408.49 797.138 1408.49 552.794C1408.49 308.449 1319.69 110.368 1210.16 110.368C1161.19 110.368 1116.37 149.957 1081.77 215.567C1122.74 122.544 1180.49 64.5986 1244.48 64.5986C1368.76 64.599 1469.51 283.171 1469.51 552.793C1469.51 822.415 1368.76 1040.99 1244.48 1040.99Z" fill="white"/>
<path d="M314.557 -130C404.005 -130 484.732 -49.0004 542.007 81.0332C493.645 -10.6825 430.99 -66.0213 362.54 -66.0215C209.427 -66.0215 85.3037 210.868 85.3037 552.429C85.3038 893.989 209.427 1170.88 362.54 1170.88C430.988 1170.88 493.639 1115.54 542.001 1023.83C484.727 1153.86 404.003 1234.86 314.557 1234.86C140.832 1234.86 4.56386e-05 929.322 0 552.428C0 175.533 140.832 -130 314.557 -130Z" fill="white"/>
<path d="M1186 1023.83C1234.36 1115.54 1297.01 1170.88 1365.46 1170.88C1518.57 1170.88 1642.7 893.987 1642.7 552.426C1642.7 210.866 1518.57 -66.0238 1365.46 -66.0238C1297.02 -66.0238 1234.36 -10.693 1186 81.0115C1243.28 -49.0097 1324 -130 1413.44 -130C1587.17 -130 1728 175.533 1728 552.428C1728 929.322 1587.17 1234.86 1413.44 1234.86C1324 1234.86 1243.27 1153.86 1186 1023.83Z" fill="white"/>
</g>
</svg>
