<svg width="624" height="624" viewBox="0 0 624 624" fill="none" xmlns="http://www.w3.org/2000/svg">
<path d="M57.5 299V349L86.5 307.5C81.7141 309.566 78.7334 310.417 72 310.5C64.4146 308.861 61.4178 306.08 57.5 299Z" fill="#E862F6"/>
<path d="M222 197H267V486H209.5C203.089 456.46 197.822 440.333 179 414C159.845 391.611 147.27 380.892 121.5 365L138 342C147.147 345.82 152.6 346.983 163 347C173.856 344.137 179.465 341.679 188.5 335.5C196.766 326.548 200.778 321.137 206.5 310.5C210.86 299.248 212.894 292.513 216 280C220.526 280.003 222.938 279.364 227 277C231.13 272.81 232.916 270.256 233 264.5C237.246 262.719 239.271 261.201 241.5 256.5C241.883 251.802 241.313 249.568 238.5 246.5C242.193 241.024 242.581 237.431 241.5 230.5C237.929 223.32 234.737 220.601 227 218C228.188 208.959 227.365 204.288 222 197Z" fill="#E862F6"/>
<path fill-rule="evenodd" clip-rule="evenodd" d="M291.5 197H546.5C553.658 199.525 556.273 202.399 559 209.5V407L386.5 328L291.5 373.5V197ZM439.5 298.5C447.408 293.487 450.928 290.149 456 283.5C461.11 290.935 464.529 294.145 471.5 298.5C463.553 304.356 460.192 308.234 456 316C451.222 307.939 447.72 304.028 439.5 298.5ZM498.5 209.5C490.415 234.043 480.536 243.067 456 253C479.823 259.883 488.779 269.775 498.5 296C508.99 269.298 518.01 259.884 540 253C518.164 243.544 508.533 234.755 498.5 209.5Z" fill="#E862F6"/>
<path d="M273.897 470.052H83.1662C73.1149 470.052 64.9662 461.903 64.9662 451.852V285.435" stroke="#444444" stroke-width="10" stroke-linecap="round"/>
<mask id="mask0_872_1233" style="mask-type:luminance" maskUnits="userSpaceOnUse" x="458" y="188" width="97" height="97">
<path d="M458 188H554.183V284.65H458V188Z" fill="white"/>
</mask>
<g mask="url(#mask0_872_1233)">
<mask id="mask1_872_1233" style="mask-type:luminance" maskUnits="userSpaceOnUse" x="458" y="189" width="96" height="96">
<path d="M510.724 192.152L518.403 208.605C521.598 215.454 527.103 220.958 533.952 224.154L550.405 231.832C552.328 232.729 553.557 234.659 553.557 236.778C553.557 238.901 552.328 240.831 550.405 241.728L533.952 249.406C527.103 252.602 521.598 258.107 518.403 264.955L510.724 281.408C509.827 283.331 507.898 284.56 505.778 284.56C503.656 284.56 501.726 283.331 500.829 281.408L493.151 264.955C489.955 258.107 484.45 252.602 477.602 249.406L461.148 241.728C459.226 240.831 458 238.901 458 236.778C458 234.659 459.226 232.729 461.148 231.832L477.602 224.154C484.45 220.958 489.955 215.454 493.151 208.605L500.829 192.152C501.726 190.229 503.656 189 505.778 189C507.898 189 509.827 190.229 510.724 192.152Z" fill="white"/>
</mask>
<g mask="url(#mask1_872_1233)">
<path d="M510.724 192.152L518.403 208.605C521.598 215.454 527.103 220.958 533.952 224.154L550.405 231.832C552.328 232.729 553.557 234.659 553.557 236.778C553.557 238.901 552.328 240.831 550.405 241.728L533.952 249.406C527.103 252.602 521.598 258.107 518.403 264.955L510.724 281.408C509.827 283.331 507.898 284.56 505.778 284.56C503.656 284.56 501.726 283.331 500.829 281.408L493.151 264.955C489.955 258.107 484.45 252.602 477.602 249.406L461.148 241.728C459.226 240.831 458 238.901 458 236.778C458 234.659 459.226 232.729 461.148 231.832L477.602 224.154C484.45 220.958 489.955 215.454 493.151 208.605L500.829 192.152C501.726 190.229 503.656 189 505.778 189C507.898 189 509.827 190.229 510.724 192.152Z" stroke="#444444" stroke-width="20"/>
</g>
</g>
<path d="M298.059 357.402L393.917 312.298" stroke="#444444" stroke-width="10" stroke-linecap="round"/>
<path d="M394.767 312.413L563.151 391.703" stroke="#444444" stroke-width="10" stroke-linecap="round"/>
<path d="M300.608 448.994L562.903 448.994" stroke="#444444" stroke-width="10" stroke-linecap="round"/>
<path d="M417.422 346.01C399.784 356.19 382.173 356.132 364.586 345.837" stroke="#444444" stroke-width="10" stroke-linecap="round"/>
<path d="M462.6 345.292C447.755 353.536 432.802 353.729 417.737 345.868" stroke="#444444" stroke-width="10" stroke-linecap="round"/>
<path d="M364.383 345.627C350.211 354.033 335.854 354.341 321.32 346.551" stroke="#444444" stroke-width="10" stroke-linecap="round"/>
<mask id="mask2_872_1233" style="mask-type:luminance" maskUnits="userSpaceOnUse" x="441" y="261" width="45" height="45">
<path d="M441 261H485.092V305.115H441V261Z" fill="white"/>
</mask>
<g mask="url(#mask2_872_1233)">
<mask id="mask3_872_1233" style="mask-type:luminance" maskUnits="userSpaceOnUse" x="441" y="261" width="44" height="44">
<path d="M467.504 264.453C470.409 270.675 475.413 275.679 481.639 278.584C483.385 279.4 484.503 281.153 484.503 283.079C484.503 285.009 483.385 286.763 481.639 287.579C475.413 290.483 470.409 295.487 467.504 301.709C466.689 303.456 464.935 304.574 463.009 304.574C461.079 304.574 459.329 303.456 458.513 301.709C455.608 295.487 450.604 290.483 444.379 287.579C442.632 286.763 441.515 285.009 441.515 283.079C441.515 281.153 442.632 279.4 444.379 278.584C450.604 275.679 455.608 270.675 458.513 264.453C459.329 262.706 461.079 261.589 463.009 261.589C464.935 261.589 466.689 262.706 467.504 264.453Z" fill="white"/>
</mask>
<g mask="url(#mask3_872_1233)">
<path d="M467.504 264.453C470.409 270.675 475.413 275.679 481.639 278.584C483.385 279.4 484.503 281.153 484.503 283.079C484.503 285.009 483.385 286.763 481.639 287.579C475.413 290.483 470.409 295.487 467.504 301.709C466.689 303.456 464.938 304.574 463.009 304.574C461.079 304.574 459.329 303.456 458.513 301.709C455.608 295.487 450.604 290.483 444.379 287.579C442.632 286.763 441.515 285.009 441.515 283.079C441.515 281.153 442.632 279.4 444.379 278.584C450.604 275.679 455.608 270.675 458.513 264.453C459.329 262.706 461.079 261.589 463.009 261.589C464.938 261.589 466.689 262.706 467.504 264.453Z" stroke="#444444" stroke-width="16"/>
</g>
</g>
<path d="M124.472 312.711C173.181 347.076 206.243 329.827 223.658 260.965" stroke="#444444" stroke-width="10" stroke-linecap="round"/>
<path d="M112.26 276.653C102.554 271.947 101.827 264.794 110.08 255.196" stroke="#444444" stroke-width="10" stroke-linecap="round"/>
<path d="M109.965 255.531C113.628 250.975 118.188 251.188 123.649 256.165" stroke="#444444" stroke-width="10" stroke-linecap="round"/>
<path d="M121.432 355.78L142.936 327.377" stroke="#444444" stroke-width="10" stroke-linecap="round"/>
<path d="M68.8153 329.31L93.3325 291.369" stroke="#444444" stroke-width="10" stroke-linecap="round"/>
<path d="M69.2013 329.31C79.5505 351.251 96.7281 360.405 120.734 356.772" stroke="#444444" stroke-width="10" stroke-linecap="round"/>
<path d="M147.249 246.279C158.018 216.264 183.077 220.868 222.429 260.098" stroke="#444444" stroke-width="10" stroke-linecap="round"/>
<path d="M129.732 349.95C176.207 376.238 205.258 415.441 216.887 467.556" stroke="#444444" stroke-width="10" stroke-linecap="round"/>
<path d="M192.339 291.393L199.046 269.97" stroke="#444444" stroke-width="8" stroke-linecap="round"/>
<path d="M180.753 303.592C174.5 305.047 170.032 302.85 167.347 297" stroke="#444444" stroke-width="8" stroke-linecap="round"/>
<path d="M191.857 291.434L186 290.002" stroke="#444444" stroke-width="8" stroke-linecap="round"/>
<mask id="mask4_872_1233" style="mask-type:luminance" maskUnits="userSpaceOnUse" x="171" y="260" width="9" height="9">
<path d="M171.641 260.257H179.728V268.345H171.641V260.257Z" fill="white"/>
</mask>
<g mask="url(#mask4_872_1233)">
<mask id="mask5_872_1233" style="mask-type:luminance" maskUnits="userSpaceOnUse" x="171" y="260" width="9" height="9">
<path d="M175.686 260.257C173.452 260.257 171.641 262.069 171.641 264.3C171.641 266.534 173.452 268.345 175.686 268.345C177.917 268.345 179.728 266.534 179.728 264.3C179.728 262.069 177.917 260.257 175.686 260.257Z" fill="white"/>
</mask>
<g mask="url(#mask5_872_1233)">
<path d="M171.641 260.257H179.728V268.345H171.641V260.257Z" fill="#444444"/>
</g>
</g>
<mask id="mask6_872_1233" style="mask-type:luminance" maskUnits="userSpaceOnUse" x="171" y="260" width="9" height="9">
<path d="M171.641 260.257H179.441V268.057H171.641V260.257Z" fill="white"/>
</mask>
<g mask="url(#mask6_872_1233)">
<mask id="mask7_872_1233" style="mask-type:luminance" maskUnits="userSpaceOnUse" x="171" y="260" width="9" height="9">
<path d="M175.683 260.257C173.452 260.257 171.641 262.065 171.641 264.3C171.641 266.531 173.452 268.342 175.683 268.342C177.917 268.342 179.725 266.531 179.725 264.3C179.725 262.065 177.917 260.257 175.683 260.257Z" fill="white"/>
</mask>
<g mask="url(#mask7_872_1233)">
<path d="M175.683 260.257C173.452 260.257 171.641 262.065 171.641 264.3C171.641 266.531 173.452 268.342 175.683 268.342C177.917 268.342 179.725 266.531 179.725 264.3C179.725 262.065 177.917 260.257 175.683 260.257Z" stroke="#444444" stroke-width="10"/>
</g>
</g>
<mask id="mask8_872_1233" style="mask-type:luminance" maskUnits="userSpaceOnUse" x="203" y="274" width="9" height="9">
<path d="M203.447 274.747H211.534V282.835H203.447V274.747Z" fill="white"/>
</mask>
<g mask="url(#mask8_872_1233)">
<mask id="mask9_872_1233" style="mask-type:luminance" maskUnits="userSpaceOnUse" x="203" y="274" width="9" height="9">
<path d="M207.492 274.747C205.258 274.747 203.447 276.558 203.447 278.789C203.447 281.024 205.258 282.835 207.492 282.835C209.723 282.835 211.534 281.024 211.534 278.789C211.534 276.558 209.723 274.747 207.492 274.747Z" fill="white"/>
</mask>
<g mask="url(#mask9_872_1233)">
<path d="M203.447 274.747H211.534V282.835H203.447V274.747Z" fill="#444444"/>
</g>
</g>
<mask id="mask10_872_1233" style="mask-type:luminance" maskUnits="userSpaceOnUse" x="203" y="274" width="9" height="9">
<path d="M203.447 274.747H211.247V282.547H203.447V274.747Z" fill="white"/>
</mask>
<g mask="url(#mask10_872_1233)">
<mask id="mask11_872_1233" style="mask-type:luminance" maskUnits="userSpaceOnUse" x="203" y="274" width="9" height="9">
<path d="M207.489 274.747C205.258 274.747 203.447 276.555 203.447 278.789C203.447 281.02 205.258 282.831 207.489 282.831C209.72 282.831 211.531 281.02 211.531 278.789C211.531 276.555 209.72 274.747 207.489 274.747Z" fill="white"/>
</mask>
<g mask="url(#mask11_872_1233)">
<path d="M207.489 274.747C205.258 274.747 203.447 276.555 203.447 278.789C203.447 281.02 205.258 282.831 207.489 282.831C209.72 282.831 211.531 281.02 211.531 278.789C211.531 276.555 209.72 274.747 207.489 274.747Z" stroke="#444444" stroke-width="10"/>
</g>
</g>
<path d="M168.003 244.348C173.074 241.568 177.912 241.944 182.509 245.475" stroke="#444444" stroke-width="8" stroke-linecap="round"/>
<path d="M209.021 258.961C214.804 259.015 218.839 261.706 221.128 267.031" stroke="#444444" stroke-width="8" stroke-linecap="round"/>
<path d="M275.258 499.623V150.986" stroke="#444444" stroke-width="10" stroke-linecap="round"/>
<path d="M298.005 492.625V153.346" stroke="#444444" stroke-width="10" stroke-linecap="round"/>
<path d="M300.608 179.945H547.127C557.179 179.945 565.327 188.094 565.327 198.145V451.851C565.327 461.903 557.179 470.051 547.127 470.051H300.608" stroke="#444444" stroke-width="10" stroke-linecap="round"/>
<path d="M89.3885 289.981C101.204 293.289 108.817 289.04 112.233 277.228" stroke="#444444" stroke-width="10" stroke-linecap="round"/>
<path d="M124.18 256.903C134.503 264.1 142.187 260.505 147.235 246.123" stroke="#444444" stroke-width="10" stroke-linecap="round"/>
<path d="M223.766 262.258C233.848 263.49 238.855 259.015 238.784 248.828" stroke="#444444" stroke-width="10" stroke-linecap="round"/>
<path d="M239.082 248.903C248.551 245.233 250.853 238.922 245.984 229.975" stroke="#444444" stroke-width="10" stroke-linecap="round"/>
<path d="M245.693 229.138C251.916 216.213 248.3 207.228 234.839 202.18" stroke="#444444" stroke-width="10" stroke-linecap="round"/>
<path d="M234.247 201.47C235.114 183.297 226.542 175.629 208.538 178.473" stroke="#444444" stroke-width="10" stroke-linecap="round"/>
<path d="M208.511 177.876C201.243 162.584 190.46 159.5 176.157 168.621" stroke="#444444" stroke-width="10" stroke-linecap="round"/>
<path d="M176.465 168.604C168.98 153.234 157.984 150.106 143.484 159.216" stroke="#444444" stroke-width="10" stroke-linecap="round"/>
<path d="M143.322 158.996C130.836 147.005 119.153 147.763 108.276 161.264" stroke="#444444" stroke-width="10" stroke-linecap="round"/>
<path d="M108.52 161.728C94.9372 159.568 87.0086 165.283 84.7336 178.872" stroke="#444444" stroke-width="10" stroke-linecap="round"/>
<path d="M69.2047 284.679C73.7649 294.49 80.3834 296.142 89.0669 289.636" stroke="#444444" stroke-width="10" stroke-linecap="round"/>
<path d="M84.4526 179.508C71.0159 182.47 65.7211 190.697 68.5682 204.188" stroke="#444444" stroke-width="10" stroke-linecap="round"/>
<path d="M66.08 265.951C58.368 272.655 58.93 278.613 67.7591 283.826" stroke="#444444" stroke-width="10" stroke-linecap="round"/>
<path d="M66.2153 238.448C57.3489 247.362 57.1966 256.438 65.7549 265.684" stroke="#444444" stroke-width="10" stroke-linecap="round"/>
<path d="M68.1586 204.591C58.5339 215.272 57.8195 226.532 66.0122 238.371" stroke="#444444" stroke-width="10" stroke-linecap="round"/>
<path d="M226.864 179.945L272.563 179.945" stroke="#444444" stroke-width="10" stroke-linecap="round"/>
</svg>
