<svg width="640" height="539" viewBox="0 0 640 539" fill="none" xmlns="http://www.w3.org/2000/svg">
<path d="M7.5 223C49.3085 201.585 74.4007 196.826 121 196.5V171.5C123.157 166.428 125.121 164.346 130.5 162.5H168.5C174.048 160.532 176.469 158.918 178 154V140.5C180.613 135.31 182.772 133.086 189.5 132H239C234.817 138.522 233.815 142.667 236 151.5C240.248 158.637 243.312 160.301 249 162.5L205.5 218.5C211.807 245.695 217.166 260.753 232.5 287C253.568 285.604 265.483 282.294 287 270L320.5 225.5C337.514 222.294 346.088 219.738 360.5 211V230.5C361.314 235.493 363.728 236.365 370 236C374.478 235.477 376.856 236.265 381 238.5C383.732 253.414 383.248 261.583 381 276C379.708 280.391 378.399 281.591 375.5 282.5H360.5C370.617 303.003 374.087 314.882 377.5 336.5C381.512 359.106 385.739 370.245 396 388C401.1 394.891 404.772 396.781 412 398.5C421.687 399.953 426.432 398.635 434 393.5C445.389 385.353 451.583 380.023 462 368C475.21 350.217 482.124 339.664 492.5 318.5C500.126 302.571 503.561 293.308 508 276C514.415 285.238 518.978 289.403 528.5 296C534.931 300.65 539.53 302.186 550 302.5C559.419 303.327 564.665 302.741 574 299.5L559.5 336.5C566.46 343.821 569.018 348.455 571.5 357.5C554.543 389.639 544.354 407.307 524.5 438C508.948 460.544 499.473 472.275 482 492.5C464.765 508.668 454.157 515.9 434 526.5C425.18 531.479 419.462 533.023 408.5 534.5C394.521 533.533 387.714 531.804 377.5 526.5C367.365 521.228 362.579 517.492 354 511.5C340.784 499.314 334.279 492.082 324.5 478.5C313.308 461.306 307.781 449.303 299 424.5L287 398.5V538H28.5C17.4159 538.429 11.2542 535.9 7.5 526.5V223Z" fill="#E862F6"/>
<path d="M5.8475 216.851C56.623 189.298 110.724 178.696 168.149 185.048" stroke="#444444" stroke-width="10" stroke-linecap="round"/>
<path d="M386.055 301.477C405.839 409.404 446.498 409.022 508.035 300.323" stroke="#444444" stroke-width="10" stroke-linecap="round"/>
<path d="M361.565 252.514C374.216 266.116 382.473 283.155 386.336 303.634" stroke="#444444" stroke-width="10" stroke-linecap="round"/>
<path d="M581.593 348.175C467.596 563.021 374.114 573.902 301.145 380.814" stroke="#444444" stroke-width="10" stroke-linecap="round"/>
<path d="M133.889 178.729V163.027C133.889 154.354 140.917 147.322 149.59 147.322H176.294C184.853 147.322 191.793 140.385 191.793 131.827C191.793 123.269 198.73 116.332 207.288 116.332H252.598" stroke="#444444" stroke-width="10" stroke-linecap="round"/>
<path d="M247.392 272.816C226.419 238.718 215.183 201.665 213.69 161.656" stroke="#444444" stroke-width="9.99999" stroke-linecap="round"/>
<path d="M219.794 203.32L263.632 146.855" stroke="#444444" stroke-width="10" stroke-linecap="round"/>
<path d="M338.287 234.818C311.037 254.958 280.65 267.518 247.131 272.498" stroke="#444444" stroke-width="10" stroke-linecap="round"/>
<path d="M369.016 197.768H371.792C373.326 197.768 374.572 199.014 374.572 200.547V208.49C374.572 211.33 375.699 214.059 377.71 216.07C379.721 218.081 382.446 219.208 385.29 219.208H385.314C388.164 219.208 390.896 220.339 392.914 222.356C394.928 224.371 396.059 227.103 396.059 229.953V255.963C396.059 258.804 394.931 261.529 392.921 263.537C390.913 265.547 388.188 266.675 385.344 266.675H374.629" stroke="#444444" stroke-width="10" stroke-linecap="round"/>
<path d="M297.729 257.284L335.247 208.463" stroke="#444444" stroke-width="10" stroke-linecap="round"/>
<path d="M371.741 196.516C334.153 218.25 304.551 210.278 282.928 172.594" stroke="#444444" stroke-width="9.99999" stroke-linecap="round"/>
<path d="M413.981 106.785C413.287 144.214 398.784 174.375 370.475 197.27" stroke="#444444" stroke-width="10" stroke-linecap="round"/>
<path d="M263.923 146.994C245.858 138.754 244.524 125.964 259.914 108.617" stroke="#444444" stroke-width="10" stroke-linecap="round"/>
<path d="M258.13 111.119C264.728 102.042 273.097 102.337 283.233 112.002" stroke="#444444" stroke-width="10" stroke-linecap="round"/>
<path d="M371.714 247.138C347.211 260.842 321.136 270.145 293.488 275.04" stroke="#444444" stroke-width="10" stroke-linecap="round"/>
<path d="M209.807 257.67C191.61 232.292 177.642 204.766 167.905 175.092" stroke="#444444" stroke-width="10" stroke-linecap="round"/>
<path d="M269.228 103.738L265.602 72.5043" stroke="#444444" stroke-width="10" stroke-linecap="round"/>
<path d="M266.496 77.5181C262.365 45.4379 276.628 31.121 309.287 34.564" stroke="#444444" stroke-width="10" stroke-linecap="round"/>
<path d="M308.62 34.8585C327.9 -9.77817 371.694 -3.22739 440.008 54.5007" stroke="#444444" stroke-width="10" stroke-linecap="round"/>
<path d="M435.171 50.1913C466.259 74.8472 459.322 93.9918 414.371 107.625" stroke="#444444" stroke-width="10" stroke-linecap="round"/>
<path d="M291.324 102.039L307.249 99.2965" stroke="#444444" stroke-width="8" stroke-linecap="round"/>
<path d="M311.511 89.0284C325.409 48.6404 359.933 54.4159 415.088 106.355" stroke="#444444" stroke-width="10" stroke-linecap="round"/>
<path d="M295.17 111.955L305.655 110.218" stroke="#444444" stroke-width="8" stroke-linecap="round"/>
<path d="M573.709 322.819C583.205 331.357 585.378 340.704 580.229 350.86" stroke="#444444" stroke-width="9.99999" stroke-linecap="round"/>
<path d="M507.913 301.054L521.766 263.374" stroke="#444444" stroke-width="10" stroke-linecap="round"/>
<path d="M573.289 322.758C544.408 326.346 522.86 318.661 508.648 299.703" stroke="#444444" stroke-width="10" stroke-linecap="round"/>
<path d="M586.932 284.983C558.051 288.572 536.503 280.89 522.291 261.932" stroke="#444444" stroke-width="10" stroke-linecap="round"/>
<path d="M573.81 320.933L586.915 285.186" stroke="#444444" stroke-width="10" stroke-linecap="round"/>
<path d="M554.351 322.443L567.456 286.696" stroke="#444444" stroke-width="10" stroke-linecap="round"/>
<path d="M535.196 317.748L548.301 282.001" stroke="#444444" stroke-width="10" stroke-linecap="round"/>
<path d="M517.849 309.138L530.954 273.392" stroke="#444444" stroke-width="10" stroke-linecap="round"/>
<path d="M522.609 263.012L517.01 198.076" stroke="#444444" stroke-width="10" stroke-linecap="round"/>
<path d="M544.973 218.683L543.975 165.508" stroke="#444444" stroke-width="10" stroke-linecap="round"/>
<path d="M587.233 284.56L633.935 214.265" stroke="#444444" stroke-width="10" stroke-linecap="round"/>
<path d="M542.092 218.903C556.748 220.152 562.175 230.766 558.376 250.743" stroke="#444444" stroke-width="10" stroke-linecap="round"/>
<path d="M541.469 218.873L535.02 191.634" stroke="#444444" stroke-width="10" stroke-linecap="round"/>
<path d="M517.28 196.874C522.467 190.97 528.151 189.162 534.329 191.451" stroke="#444444" stroke-width="9.99999" stroke-linecap="round"/>
<path d="M544.712 164.862C550.715 160.143 556.436 159.499 561.87 162.936" stroke="#444444" stroke-width="10" stroke-linecap="round"/>
<path d="M564.974 202.576L562.388 163.396" stroke="#444444" stroke-width="10" stroke-linecap="round"/>
<path d="M564.788 204.749L580.097 155.945" stroke="#444444" stroke-width="10" stroke-linecap="round"/>
<path d="M584.342 211.686L599.655 162.881" stroke="#444444" stroke-width="10" stroke-linecap="round"/>
<path d="M580.371 155.718C589.444 152.011 595.961 154.205 599.918 162.293" stroke="#444444" stroke-width="10" stroke-linecap="round"/>
<path d="M585.182 212.088L610.583 174.273" stroke="#444444" stroke-width="10" stroke-linecap="round"/>
<path d="M601.706 223.734L627.11 186.901" stroke="#444444" stroke-width="10" stroke-linecap="round"/>
<path d="M611.161 174.209C621.003 173.407 626.342 177.513 627.185 186.529" stroke="#444444" stroke-width="10" stroke-linecap="round"/>
<path d="M617.299 201.052C627.422 200.372 633.021 204.651 634.094 213.89" stroke="#444444" stroke-width="10" stroke-linecap="round"/>
<path d="M373.475 156.679L381.19 127.903" stroke="#444444" stroke-width="10" stroke-linecap="round"/>
<path d="M356.717 172.212C348.125 174.283 342.011 171.284 338.371 163.21" stroke="#444444" stroke-width="10" stroke-linecap="round"/>
<path d="M372.144 156.364L363.759 154.313" stroke="#444444" stroke-width="10" stroke-linecap="round"/>
<mask id="mask0_796_430" style="mask-type:luminance" maskUnits="userSpaceOnUse" x="344" y="113" width="11" height="12">
<path d="M344.035 113.867H354.936V124.765H344.035V113.867Z" fill="white"/>
</mask>
<g mask="url(#mask0_796_430)">
<mask id="mask1_796_430" style="mask-type:luminance" maskUnits="userSpaceOnUse" x="344" y="113" width="11" height="12">
<path d="M349.486 113.867C346.476 113.867 344.035 116.308 344.035 119.318C344.035 122.327 346.476 124.765 349.486 124.765C352.495 124.765 354.936 122.327 354.936 119.318C354.936 116.308 352.495 113.867 349.486 113.867Z" fill="white"/>
</mask>
<g mask="url(#mask1_796_430)">
<path d="M344.035 113.867H354.936V124.765H344.035V113.867Z" fill="#444444"/>
</g>
</g>
<mask id="mask2_796_430" style="mask-type:luminance" maskUnits="userSpaceOnUse" x="386" y="133" width="12" height="12">
<path d="M386.895 133.391H397.792V144.292H386.895V133.391Z" fill="white"/>
</mask>
<g mask="url(#mask2_796_430)">
<mask id="mask3_796_430" style="mask-type:luminance" maskUnits="userSpaceOnUse" x="386" y="133" width="12" height="12">
<path d="M392.342 133.391C389.332 133.391 386.895 135.832 386.895 138.842C386.895 141.851 389.332 144.292 392.342 144.292C395.351 144.292 397.792 141.851 397.792 138.842C397.792 135.832 395.351 133.391 392.342 133.391Z" fill="white"/>
</mask>
<g mask="url(#mask3_796_430)">
<path d="M386.895 133.391H397.792V144.292H386.895V133.391Z" fill="#444444"/>
</g>
</g>
<path d="M339.536 93.1453C346.513 89.2352 353.162 89.7463 359.476 94.6823" stroke="#444444" stroke-width="10" stroke-linecap="round"/>
<path d="M394.18 111.555C402.18 111.552 407.729 115.245 410.83 122.636" stroke="#444444" stroke-width="10" stroke-linecap="round"/>
</svg>
