<svg width="497" height="497" viewBox="0 0 497 497" fill="none" xmlns="http://www.w3.org/2000/svg">
<g clip-path="url(#clip0_1019_523)">
<path d="M231 93.9999C228.299 94.2476 226.485 95.2295 225 97.4999C223.183 100.278 223.183 103.222 225 106C226.485 108.27 228.299 109.252 231 109.5C234.219 109.795 236.741 108.711 238.5 106C240.307 103.215 240.307 100.285 238.5 97.4999C236.741 94.7885 234.219 93.7048 231 93.9999Z" fill="white"/>
<path d="M330.5 68.4999C328.318 68.5807 326.773 69.2265 325.5 70.9999C323.906 73.2206 323.906 75.7793 325.5 77.9999C326.773 79.7733 328.318 80.4191 330.5 80.4999C332.858 80.5873 334.63 79.921 336 77.9999C337.587 75.7741 337.587 73.2258 336 70.9999C334.63 69.0788 332.858 68.4126 330.5 68.4999Z" fill="white"/>
<path fill-rule="evenodd" clip-rule="evenodd" d="M57.5 136.5H414C422.85 137.466 426.737 140.288 431 151V366C428.348 375.345 424.535 378.775 414 382L55.5 380C46.5891 376.147 43.4632 373.197 42.5 366V151C44.5086 141.9 47.5524 138.51 57.5 136.5ZM199.5 295V220.5C201.682 215.269 203.926 214.333 209.5 216L278.5 253.5C282.014 257.351 281.961 259.541 278.5 263.5L208 302C202.022 302.736 199.995 301.411 199.5 295Z" fill="white"/>
<path d="M203 416.5C200.352 416.705 198.576 418.072 197.5 420.5C196.63 422.464 196.555 424.071 197.5 426C198.62 428.286 200.461 429.315 203 429.5C205.875 429.71 208.242 428.594 209.5 426C210.437 424.067 210.374 422.462 209.5 420.5C208.287 417.777 205.972 416.27 203 416.5Z" fill="white"/>
<path d="M226 397C222.853 397.092 220.622 398.301 219 401C217.29 403.845 217.183 406.722 219 409.5C220.673 412.058 222.945 412.917 226 413C229.231 413.087 231.741 412.211 233.5 409.5C235.307 406.715 235.208 403.846 233.5 401C231.792 398.154 229.318 396.903 226 397Z" fill="white"/>
<path d="M330.5 438.5C327.954 438.5 326.268 439.793 325 442C323.638 444.37 323.528 446.696 325 449C326.317 451.062 328.053 452 330.5 452C332.947 452 334.683 451.062 336 449C337.472 446.696 337.362 444.37 336 442C334.732 439.793 333.046 438.5 330.5 438.5Z" fill="white"/>
<mask id="mask0_1019_523" style="mask-type:luminance" maskUnits="userSpaceOnUse" x="49" y="121" width="399" height="255">
<path d="M49.7026 121.448H447.3V375.643H49.7026V121.448Z" fill="white"/>
</mask>
<g mask="url(#mask0_1019_523)">
<mask id="mask1_1019_523" style="mask-type:luminance" maskUnits="userSpaceOnUse" x="49" y="121" width="399" height="255">
<path d="M72.9995 121.448H424C436.868 121.448 447.297 131.878 447.297 144.745V352.249C447.297 365.117 436.868 375.546 424 375.546H72.9995C60.1323 375.546 49.7026 365.117 49.7026 352.249V144.745C49.7026 131.878 60.1323 121.448 72.9995 121.448Z" fill="white"/>
</mask>
<g mask="url(#mask1_1019_523)">
<path d="M72.9995 121.448H424C436.868 121.448 447.297 131.878 447.297 144.745V352.249C447.297 365.117 436.868 375.546 424 375.546H72.9995C60.1323 375.546 49.7026 365.117 49.7026 352.249V144.745C49.7026 131.878 60.1323 121.448 72.9995 121.448Z" stroke="#444444" stroke-width="16"/>
</g>
</g>
<path d="M117.884 375.546V124.514" stroke="#444444" stroke-width="8"/>
<path d="M379.594 375.546L379.594 124.514" stroke="#444444" stroke-width="8"/>
<mask id="mask2_1019_523" style="mask-type:luminance" maskUnits="userSpaceOnUse" x="207" y="200" width="90" height="97">
<path d="M207.164 200.871H296.819V296.129H207.164V200.871Z" fill="white"/>
</mask>
<g mask="url(#mask2_1019_523)">
<mask id="mask3_1019_523" style="mask-type:luminance" maskUnits="userSpaceOnUse" x="207" y="200" width="90" height="97">
<path d="M291.294 239.518L223.496 202.235C220.08 200.356 215.93 200.423 212.576 202.405C209.222 204.387 207.164 207.995 207.164 211.891V285.106C207.164 289.003 209.222 292.608 212.576 294.592C215.93 296.574 220.08 296.639 223.496 294.762L291.294 257.479C294.568 255.678 296.604 252.237 296.604 248.497C296.604 244.76 294.568 241.32 291.294 239.518Z" fill="white"/>
</mask>
<g mask="url(#mask3_1019_523)">
<path d="M291.294 239.518L223.496 202.235C220.08 200.356 215.93 200.423 212.576 202.405C209.222 204.387 207.164 207.995 207.164 211.891V285.106C207.164 289.003 209.222 292.608 212.576 294.592C215.93 296.574 220.08 296.639 223.496 294.762L291.294 257.479C294.568 255.678 296.604 252.237 296.604 248.497C296.604 244.76 294.568 241.32 291.294 239.518Z" stroke="#444444" stroke-width="16"/>
</g>
</g>
<path d="M49.7 164.092L117.886 164.092" stroke="#444444" stroke-width="8"/>
<path d="M49.7 204.84L117.886 204.84" stroke="#444444" stroke-width="8"/>
<path d="M49.7 245.588L117.886 245.588" stroke="#444444" stroke-width="8"/>
<path d="M49.7 286.336H117.886" stroke="#444444" stroke-width="8"/>
<path d="M49.7 327.084H117.886" stroke="#444444" stroke-width="8"/>
<path d="M379.114 167.004L447.3 167.004" stroke="#444444" stroke-width="8"/>
<path d="M379.114 207.752L447.3 207.752" stroke="#444444" stroke-width="8"/>
<path d="M379.114 248.5L447.3 248.5" stroke="#444444" stroke-width="8"/>
<path d="M379.114 289.248H447.3" stroke="#444444" stroke-width="8"/>
<path d="M379.114 329.996H447.3" stroke="#444444" stroke-width="8"/>
<path d="M136.831 73.4336L144.23 66.0347" stroke="#444444" stroke-width="6" stroke-linecap="round"/>
<path d="M121.419 88.8463L128.818 81.4447" stroke="#444444" stroke-width="6" stroke-linecap="round"/>
<path d="M128.211 72.7327L120.812 65.3311" stroke="#444444" stroke-width="6" stroke-linecap="round"/>
<path d="M144.481 89.0001L137.079 81.6012" stroke="#444444" stroke-width="6" stroke-linecap="round"/>
<path d="M378.194 88.0481L388.656 88.0481" stroke="#444444" stroke-width="6" stroke-linecap="round"/>
<path d="M356.396 88.0481H366.861" stroke="#444444" stroke-width="6" stroke-linecap="round"/>
<path d="M372.594 81.4556V70.9908" stroke="#444444" stroke-width="6" stroke-linecap="round"/>
<path d="M372.594 104.464V93.9991" stroke="#444444" stroke-width="6" stroke-linecap="round"/>
<mask id="mask4_1019_523" style="mask-type:luminance" maskUnits="userSpaceOnUse" x="334" y="56" width="17" height="17">
<path d="M334.558 56.3789H350.939V72.7595H334.558V56.3789Z" fill="white"/>
</mask>
<g mask="url(#mask4_1019_523)">
<mask id="mask5_1019_523" style="mask-type:luminance" maskUnits="userSpaceOnUse" x="334" y="56" width="17" height="17">
<path d="M342.747 56.3789C338.223 56.3789 334.558 60.046 334.558 64.5679C334.558 69.0924 338.223 72.7595 342.747 72.7595C347.272 72.7595 350.939 69.0924 350.939 64.5679C350.939 60.046 347.272 56.3789 342.747 56.3789Z" fill="white"/>
</mask>
<g mask="url(#mask5_1019_523)">
<path d="M342.747 56.3789C338.223 56.3789 334.558 60.046 334.558 64.5679C334.558 69.0924 338.223 72.7595 342.747 72.7595C347.272 72.7595 350.939 69.0924 350.939 64.5679C350.939 60.046 347.272 56.3789 342.747 56.3789Z" stroke="#444444" stroke-width="10"/>
</g>
</g>
<mask id="mask6_1019_523" style="mask-type:luminance" maskUnits="userSpaceOnUse" x="233" y="81" width="21" height="21">
<path d="M233.365 81.8059H253.556V101.997H233.365V81.8059Z" fill="white"/>
</mask>
<g mask="url(#mask6_1019_523)">
<mask id="mask7_1019_523" style="mask-type:luminance" maskUnits="userSpaceOnUse" x="233" y="81" width="21" height="22">
<path d="M243.487 81.8059C237.898 81.8059 233.365 86.3386 233.365 91.9309C233.365 97.5205 237.898 102.053 243.487 102.053C249.08 102.053 253.612 97.5205 253.612 91.9309C253.612 86.3386 249.08 81.8059 243.487 81.8059Z" fill="white"/>
</mask>
<g mask="url(#mask7_1019_523)">
<path d="M243.487 81.8059C237.898 81.8059 233.365 86.3386 233.365 91.9309C233.365 97.5205 237.898 102.053 243.487 102.053C249.08 102.053 253.612 97.5205 253.612 91.9309C253.612 86.3386 249.08 81.8059 243.487 81.8059Z" stroke="#444444" stroke-width="10"/>
</g>
</g>
<path d="M379.507 418.403L372.108 425.802" stroke="#444444" stroke-width="6" stroke-linecap="round"/>
<path d="M394.92 402.99L387.521 410.389" stroke="#444444" stroke-width="6" stroke-linecap="round"/>
<path d="M388.128 419.104L395.529 426.503" stroke="#444444" stroke-width="6" stroke-linecap="round"/>
<path d="M371.86 402.834L379.259 410.233" stroke="#444444" stroke-width="6" stroke-linecap="round"/>
<path d="M122.077 423.55L111.612 423.55" stroke="#444444" stroke-width="6" stroke-linecap="round"/>
<path d="M143.872 423.55H133.41" stroke="#444444" stroke-width="6" stroke-linecap="round"/>
<path d="M127.677 430.143V440.608" stroke="#444444" stroke-width="6" stroke-linecap="round"/>
<path d="M127.677 407.135V417.599" stroke="#444444" stroke-width="6" stroke-linecap="round"/>
<mask id="mask8_1019_523" style="mask-type:luminance" maskUnits="userSpaceOnUse" x="207" y="405" width="17" height="17">
<path d="M207.164 405.061H223.545V421.442H207.164V405.061Z" fill="white"/>
</mask>
<g mask="url(#mask8_1019_523)">
<mask id="mask9_1019_523" style="mask-type:luminance" maskUnits="userSpaceOnUse" x="207" y="405" width="17" height="17">
<path d="M215.353 421.442C219.878 421.442 223.545 417.775 223.545 413.253C223.545 408.728 219.878 405.061 215.353 405.061C210.831 405.061 207.164 408.728 207.164 413.253C207.164 417.775 210.831 421.442 215.353 421.442Z" fill="white"/>
</mask>
<g mask="url(#mask9_1019_523)">
<path d="M215.353 421.442C219.878 421.442 223.545 417.775 223.545 413.253C223.545 408.728 219.878 405.061 215.353 405.061C210.831 405.061 207.164 408.728 207.164 413.253C207.164 417.775 210.831 421.442 215.353 421.442Z" stroke="#444444" stroke-width="10"/>
</g>
</g>
<mask id="mask10_1019_523" style="mask-type:luminance" maskUnits="userSpaceOnUse" x="228" y="384" width="21" height="22">
<path d="M228.309 384.87H248.5V405.061H228.309V384.87Z" fill="white"/>
</mask>
<g mask="url(#mask10_1019_523)">
<mask id="mask11_1019_523" style="mask-type:luminance" maskUnits="userSpaceOnUse" x="228" y="384" width="21" height="22">
<path d="M238.375 405.061C243.967 405.061 248.5 400.528 248.5 394.939C248.5 389.346 243.967 384.814 238.375 384.814C232.785 384.814 228.253 389.346 228.253 394.939C228.253 400.528 232.785 405.061 238.375 405.061Z" fill="white"/>
</mask>
<g mask="url(#mask11_1019_523)">
<path d="M238.375 405.061C243.967 405.061 248.5 400.528 248.5 394.939C248.5 389.346 243.967 384.814 238.375 384.814C232.785 384.814 228.253 389.346 228.253 394.939C228.253 400.528 232.785 405.061 238.375 405.061Z" stroke="#444444" stroke-width="10"/>
</g>
</g>
<mask id="mask12_1019_523" style="mask-type:luminance" maskUnits="userSpaceOnUse" x="334" y="426" width="18" height="18">
<path d="M334.094 426.592H351.351V443.848H334.094V426.592Z" fill="white"/>
</mask>
<g mask="url(#mask12_1019_523)">
<mask id="mask13_1019_523" style="mask-type:luminance" maskUnits="userSpaceOnUse" x="330" y="423" width="25" height="24">
<path d="M354.32 435.635L342.097 446.82L330.913 434.6L343.135 423.415L354.32 435.635Z" fill="white"/>
</mask>
<g mask="url(#mask13_1019_523)">
<mask id="mask14_1019_523" style="mask-type:luminance" maskUnits="userSpaceOnUse" x="331" y="423" width="24" height="24">
<path d="M354.32 435.635L342.235 446.696L331.177 434.611L343.26 423.553L354.32 435.635Z" fill="white"/>
</mask>
<g mask="url(#mask14_1019_523)">
<mask id="mask15_1019_523" style="mask-type:luminance" maskUnits="userSpaceOnUse" x="334" y="426" width="17" height="18">
<path d="M348.278 441.166C351.613 438.111 351.842 432.931 348.79 429.593C345.735 426.257 340.555 426.028 337.217 429.08C333.881 432.135 333.652 437.315 336.705 440.653C339.76 443.989 344.939 444.218 348.278 441.166Z" fill="white"/>
</mask>
<g mask="url(#mask15_1019_523)">
<path d="M348.278 441.166C351.613 438.111 351.842 432.931 348.79 429.593C345.735 426.257 340.555 426.028 337.217 429.08C333.881 432.135 333.652 437.315 336.705 440.653C339.76 443.989 344.939 444.218 348.278 441.166Z" stroke="#444444" stroke-width="10"/>
</g>
</g>
</g>
</g>
</g>
<defs>
<clipPath id="clip0_1019_523">
<rect width="497" height="497" fill="white"/>
</clipPath>
</defs>
</svg>
