<svg width="566" height="566" viewBox="0 0 566 566" fill="none" xmlns="http://www.w3.org/2000/svg">
<path fill-rule="evenodd" clip-rule="evenodd" d="M463.5 128.5H50.5C35.7901 130.77 30.1929 135.225 26 150V183H486.5V150C480.176 136.277 475.33 131.19 463.5 128.5ZM67.5 144.5C62.979 144.568 61.3815 145.658 61.5 151V166C61.4824 170.013 63.0541 170.752 67.5 170.5H92C95.6558 170.233 96.9983 169.182 97.5 165V151C97.5843 146.003 96.339 144.625 92 144.5H67.5ZM139.5 144.5C135.665 144.416 134.353 145.29 134.5 149.5V164.5C134.64 168.498 135.863 169.57 139.5 170H164C168.584 170.097 169.995 168.982 170 164.5V149.5C169.743 145.135 168.322 144.171 164 144.5H139.5ZM212 144.5C208.216 144.509 206.861 145.349 207 149.5V166C207.083 169.56 208.229 170.457 212 170.5H236C239.988 170.288 241.298 169.2 241 164.5V149.5C240.847 145.634 239.626 144.68 236 144.5H212ZM284 144.5C280.192 144.344 279.269 145.604 279.5 149.5V166C279.335 169.543 280.486 170.249 284 170H308C312.077 169.711 313.118 168.437 313 164.5V149.5C312.977 145.297 311.687 144.429 308 144.5H284ZM356.5 144.5C352.227 144.389 350.778 145.117 351 149.5V164.5C350.676 168.695 351.965 169.825 356.5 170H380C384.051 169.768 385.156 168.607 385 164.5V149.5C385.072 145.801 383.948 144.717 380 144.5H356.5ZM428.5 144.5C424.421 144.548 423.251 145.55 423.5 149.5V164.5C423.493 168.678 424.679 169.791 428.5 170H452C456.191 169.963 457.213 168.583 457.5 164.5V149.5C457.208 146.005 456.084 144.826 452 144.5H428.5Z" fill="#A9DFFF"/>
<path fill-rule="evenodd" clip-rule="evenodd" d="M486.5 402V372.5L479.782 369H26.5H26V402C31.8098 415.002 37.7539 418.161 50.5 420.5H463.5C475.716 418.163 481.345 415.002 486.5 402ZM63 386C62.7811 382.963 63.9804 382.272 68 382.5H93.5C97.2504 382.057 98.2822 383.298 98 388.5V402C98.0811 406.91 96.5505 408.34 91.5 409H68C64.5856 408.294 63.3973 407.286 63 404V386ZM134.5 404V386C134.299 382.791 134.896 381.573 138.5 381.5H164C168.634 381.476 169.874 382.935 169.5 388.5V404C169.137 407.597 167.734 408.509 164 409H138.5C135.261 408.592 134.388 407.495 134.5 404ZM207.5 404V386C207.956 383.702 208.733 382.754 213 383H235.5C239.956 383.103 241.579 384.011 241.5 388.5V404C241.588 408.386 239.757 408.961 235.5 409H213C208.865 408.827 207.451 407.915 207.5 404ZM279.5 404V386C279.448 382.436 280.47 381.487 284 381.5H307.5C311.479 381.318 312.745 382.211 313 386V404C313.107 408.093 311.825 409.105 307.5 409H284C280.569 408.769 279.262 408.005 279.5 404ZM356 381.5C352.417 381.955 351.552 383.031 351.5 386V404C351.612 406.973 352.823 407.69 356 408H381C384.46 407.367 385.523 406.23 385.5 402.5V386C385.425 382.699 384.531 381.636 381 381.5H356ZM427.5 381.5C424.421 382.247 423.384 383.195 423.5 386V405.5C423.774 408.184 424.571 409.199 427.5 409.5H453C456.256 408.513 457.015 407.22 457 404V386C456.649 382.998 455.781 382.016 453 381.5H427.5Z" fill="#A9DFFF"/>
<path d="M221 227C221.238 221.435 223.098 220.883 227.5 221.5L313.5 271C316.689 274.456 316.59 276.326 313.5 279.5L227.5 332C222.848 332.492 221.078 331.719 221 326.5V227Z" fill="#A9DFFF"/>
<path d="M486.5 372.5L527 393.5C548.987 387.292 553.755 379.801 548 359L424 293H392.5C389.231 293.77 388.536 294.884 389 298L402.5 326L486.5 372.5Z" fill="#A9DFFF"/>
<path d="M539.254 368.754L414.763 301.993" stroke="#444444" stroke-width="10" stroke-linecap="round"/>
<path d="M517.958 401.685L393.467 334.923" stroke="#444444" stroke-width="10" stroke-linecap="round"/>
<path d="M393.535 334.889L376.98 301.82" stroke="#444444" stroke-width="10" stroke-linecap="round"/>
<path d="M414.661 301.949L377.766 301.79" stroke="#444444" stroke-width="10" stroke-linecap="round"/>
<path d="M539.414 369.352C544.769 388.164 537.765 399.04 518.4 401.979" stroke="#444444" stroke-width="10" stroke-linecap="round"/>
<path d="M476.586 381.153V405.068C476.586 411.412 474.068 417.496 469.582 421.979C465.098 426.465 459.015 428.986 452.671 428.986H43.7888C28.8097 428.986 16.668 416.841 16.668 401.865V164.573C16.668 149.597 28.8097 137.453 43.7888 137.453H449.465C464.444 137.453 476.586 149.597 476.586 164.573V335.829" stroke="#444444" stroke-width="10"/>
<path d="M14.4939 191.188H476.586" stroke="#444444" stroke-width="10"/>
<path d="M14.4939 379.022H476.586" stroke="#444444" stroke-width="10"/>
<mask id="mask0_911_421" style="mask-type:luminance" maskUnits="userSpaceOnUse" x="49" y="387" width="44" height="34">
<path d="M49.0215 387.236H92.6507V420.843H49.0215V387.236Z" fill="white"/>
</mask>
<g mask="url(#mask0_911_421)">
<mask id="mask1_911_421" style="mask-type:luminance" maskUnits="userSpaceOnUse" x="49" y="387" width="44" height="34">
<path d="M55.5038 387.236H86.0363C87.7559 387.236 89.4049 387.918 90.6209 389.134C91.8369 390.35 92.5217 391.999 92.5217 393.719V414.403C92.5217 416.123 91.8369 417.772 90.6209 418.988C89.4049 420.204 87.7559 420.889 86.0363 420.889H55.5038C53.7842 420.889 52.1352 420.204 50.9192 418.988C49.7032 417.772 49.0215 416.123 49.0215 414.403V393.719C49.0215 391.999 49.7032 390.35 50.9192 389.134C52.1352 387.918 53.7842 387.236 55.5038 387.236Z" fill="white"/>
</mask>
<g mask="url(#mask1_911_421)">
<path d="M55.5038 387.236H86.0363C87.7559 387.236 89.4049 387.918 90.6209 389.134C91.8369 390.35 92.5217 391.999 92.5217 393.719V414.403C92.5217 416.123 91.8369 417.772 90.6209 418.988C89.4049 420.204 87.7559 420.889 86.0363 420.889H55.5038C53.7842 420.889 52.1352 420.204 50.9192 418.988C49.7032 417.772 49.0215 416.123 49.0215 414.403V393.719C49.0215 391.999 49.7032 390.35 50.9192 389.134C52.1352 387.918 53.7842 387.236 55.5038 387.236Z" stroke="#444444" stroke-width="20"/>
</g>
</g>
<mask id="mask2_911_421" style="mask-type:luminance" maskUnits="userSpaceOnUse" x="121" y="387" width="44" height="34">
<path d="M121.132 387.236H164.761V420.843H121.132V387.236Z" fill="white"/>
</mask>
<g mask="url(#mask2_911_421)">
<mask id="mask3_911_421" style="mask-type:luminance" maskUnits="userSpaceOnUse" x="121" y="387" width="44" height="34">
<path d="M127.614 387.236H158.147C159.866 387.236 161.515 387.918 162.731 389.134C163.947 390.35 164.632 391.999 164.632 393.719V414.403C164.632 416.123 163.947 417.772 162.731 418.988C161.515 420.204 159.866 420.889 158.147 420.889H127.614C125.895 420.889 124.246 420.204 123.03 418.988C121.814 417.772 121.132 416.123 121.132 414.403V393.719C121.132 391.999 121.814 390.35 123.03 389.134C124.246 387.918 125.895 387.236 127.614 387.236Z" fill="white"/>
</mask>
<g mask="url(#mask3_911_421)">
<path d="M127.614 387.236H158.147C159.866 387.236 161.515 387.918 162.731 389.134C163.947 390.35 164.632 391.999 164.632 393.719V414.403C164.632 416.123 163.947 417.772 162.731 418.988C161.515 420.204 159.866 420.889 158.147 420.889H127.614C125.895 420.889 124.246 420.204 123.03 418.988C121.814 417.772 121.132 416.123 121.132 414.403V393.719C121.132 391.999 121.814 390.35 123.03 389.134C124.246 387.918 125.895 387.236 127.614 387.236Z" stroke="#444444" stroke-width="20"/>
</g>
</g>
<mask id="mask4_911_421" style="mask-type:luminance" maskUnits="userSpaceOnUse" x="193" y="387" width="44" height="34">
<path d="M193.242 387.236H236.871V420.843H193.242V387.236Z" fill="white"/>
</mask>
<g mask="url(#mask4_911_421)">
<mask id="mask5_911_421" style="mask-type:luminance" maskUnits="userSpaceOnUse" x="193" y="387" width="44" height="34">
<path d="M199.725 387.236H230.257C231.977 387.236 233.626 387.918 234.842 389.134C236.058 390.35 236.742 391.999 236.742 393.719V414.403C236.742 416.123 236.058 417.772 234.842 418.988C233.626 420.204 231.977 420.889 230.257 420.889H199.725C198.005 420.889 196.356 420.204 195.14 418.988C193.924 417.772 193.242 416.123 193.242 414.403V393.719C193.242 391.999 193.924 390.35 195.14 389.134C196.356 387.918 198.005 387.236 199.725 387.236Z" fill="white"/>
</mask>
<g mask="url(#mask5_911_421)">
<path d="M199.725 387.236H230.257C231.977 387.236 233.626 387.918 234.842 389.134C236.058 390.35 236.742 391.999 236.742 393.719V414.403C236.742 416.123 236.058 417.772 234.842 418.988C233.626 420.204 231.977 420.889 230.257 420.889H199.725C198.005 420.889 196.356 420.204 195.14 418.988C193.924 417.772 193.242 416.123 193.242 414.403V393.719C193.242 391.999 193.924 390.35 195.14 389.134C196.356 387.918 198.005 387.236 199.725 387.236Z" stroke="#444444" stroke-width="20"/>
</g>
</g>
<mask id="mask6_911_421" style="mask-type:luminance" maskUnits="userSpaceOnUse" x="265" y="387" width="44" height="34">
<path d="M265.349 387.236H308.942V420.843H265.349V387.236Z" fill="white"/>
</mask>
<g mask="url(#mask6_911_421)">
<mask id="mask7_911_421" style="mask-type:luminance" maskUnits="userSpaceOnUse" x="265" y="387" width="44" height="34">
<path d="M271.835 387.236H302.367C304.087 387.236 305.736 387.918 306.952 389.134C308.168 390.35 308.85 391.999 308.85 393.719V414.403C308.85 416.123 308.168 417.772 306.952 418.988C305.736 420.204 304.087 420.889 302.367 420.889H271.835C270.115 420.889 268.466 420.204 267.25 418.988C266.034 417.772 265.349 416.123 265.349 414.403V393.719C265.349 391.999 266.034 390.35 267.25 389.134C268.466 387.918 270.115 387.236 271.835 387.236Z" fill="white"/>
</mask>
<g mask="url(#mask7_911_421)">
<path d="M271.835 387.236H302.367C304.087 387.236 305.736 387.918 306.952 389.134C308.168 390.35 308.85 391.999 308.85 393.719V414.403C308.85 416.123 308.168 417.772 306.952 418.988C305.736 420.204 304.087 420.889 302.367 420.889H271.835C270.115 420.889 268.466 420.204 267.25 418.988C266.034 417.772 265.349 416.123 265.349 414.403V393.719C265.349 391.999 266.034 390.35 267.25 389.134C268.466 387.918 270.115 387.236 271.835 387.236Z" stroke="#444444" stroke-width="20"/>
</g>
</g>
<mask id="mask8_911_421" style="mask-type:luminance" maskUnits="userSpaceOnUse" x="337" y="387" width="45" height="34">
<path d="M337.46 387.236H381.089V420.843H337.46V387.236Z" fill="white"/>
</mask>
<g mask="url(#mask8_911_421)">
<mask id="mask9_911_421" style="mask-type:luminance" maskUnits="userSpaceOnUse" x="337" y="387" width="44" height="34">
<path d="M343.945 387.236H374.478C376.197 387.236 377.846 387.918 379.062 389.134C380.278 390.35 380.96 391.999 380.96 393.719V414.403C380.96 416.123 380.278 417.772 379.062 418.988C377.846 420.204 376.197 420.889 374.478 420.889H343.945C342.226 420.889 340.577 420.204 339.361 418.988C338.144 417.772 337.46 416.123 337.46 414.403V393.719C337.46 391.999 338.144 390.35 339.361 389.134C340.577 387.918 342.226 387.236 343.945 387.236Z" fill="white"/>
</mask>
<g mask="url(#mask9_911_421)">
<path d="M343.945 387.236H374.478C376.197 387.236 377.846 387.918 379.062 389.134C380.278 390.35 380.96 391.999 380.96 393.719V414.403C380.96 416.123 380.278 417.772 379.062 418.988C377.846 420.204 376.197 420.889 374.478 420.889H343.945C342.226 420.889 340.577 420.204 339.361 418.988C338.144 417.772 337.46 416.123 337.46 414.403V393.719C337.46 391.999 338.144 390.35 339.361 389.134C340.577 387.918 342.226 387.236 343.945 387.236Z" stroke="#444444" stroke-width="20"/>
</g>
</g>
<mask id="mask10_911_421" style="mask-type:luminance" maskUnits="userSpaceOnUse" x="409" y="387" width="45" height="34">
<path d="M409.57 387.236H453.199V420.843H409.57V387.236Z" fill="white"/>
</mask>
<g mask="url(#mask10_911_421)">
<mask id="mask11_911_421" style="mask-type:luminance" maskUnits="userSpaceOnUse" x="409" y="387" width="45" height="34">
<path d="M416.055 387.236H446.588C448.308 387.236 449.957 387.918 451.173 389.134C452.389 390.35 453.07 391.999 453.07 393.719V414.403C453.07 416.123 452.389 417.772 451.173 418.988C449.957 420.204 448.308 420.889 446.588 420.889H416.055C414.336 420.889 412.687 420.204 411.471 418.988C410.255 417.772 409.57 416.123 409.57 414.403V393.719C409.57 391.999 410.255 390.35 411.471 389.134C412.687 387.918 414.336 387.236 416.055 387.236Z" fill="white"/>
</mask>
<g mask="url(#mask11_911_421)">
<path d="M416.055 387.236H446.588C448.308 387.236 449.957 387.918 451.173 389.134C452.389 390.35 453.07 391.999 453.07 393.719V414.403C453.07 416.123 452.389 417.772 451.173 418.988C449.957 420.204 448.308 420.889 446.588 420.889H416.055C414.336 420.889 412.687 420.204 411.471 418.988C410.255 417.772 409.57 416.123 409.57 414.403V393.719C409.57 391.999 410.255 390.35 411.471 389.134C412.687 387.918 414.336 387.236 416.055 387.236Z" stroke="#444444" stroke-width="20"/>
</g>
</g>
<mask id="mask12_911_421" style="mask-type:luminance" maskUnits="userSpaceOnUse" x="49" y="149" width="44" height="35">
<path d="M49.0215 149.708H92.6507V183.314H49.0215V149.708Z" fill="white"/>
</mask>
<g mask="url(#mask12_911_421)">
<mask id="mask13_911_421" style="mask-type:luminance" maskUnits="userSpaceOnUse" x="49" y="149" width="44" height="35">
<path d="M55.5038 149.708H86.0363C87.7559 149.708 89.4049 150.393 90.6209 151.609C91.8369 152.825 92.5217 154.474 92.5217 156.193V176.875C92.5217 178.595 91.8369 180.247 90.6209 181.463C89.4049 182.679 87.7559 183.36 86.0363 183.36H55.5038C53.7842 183.36 52.1352 182.679 50.9192 181.463C49.7032 180.247 49.0215 178.595 49.0215 176.875V156.193C49.0215 154.474 49.7032 152.825 50.9192 151.609C52.1352 150.393 53.7842 149.708 55.5038 149.708Z" fill="white"/>
</mask>
<g mask="url(#mask13_911_421)">
<path d="M55.5038 149.708H86.0363C87.7559 149.708 89.4049 150.393 90.6209 151.609C91.8369 152.825 92.5217 154.474 92.5217 156.193V176.875C92.5217 178.595 91.8369 180.247 90.6209 181.463C89.4049 182.679 87.7559 183.36 86.0363 183.36H55.5038C53.7842 183.36 52.1352 182.679 50.9192 181.463C49.7032 180.247 49.0215 178.595 49.0215 176.875V156.193C49.0215 154.474 49.7032 152.825 50.9192 151.609C52.1352 150.393 53.7842 149.708 55.5038 149.708Z" stroke="#444444" stroke-width="20"/>
</g>
</g>
<mask id="mask14_911_421" style="mask-type:luminance" maskUnits="userSpaceOnUse" x="121" y="149" width="44" height="35">
<path d="M121.132 149.708H164.761V183.314H121.132V149.708Z" fill="white"/>
</mask>
<g mask="url(#mask14_911_421)">
<mask id="mask15_911_421" style="mask-type:luminance" maskUnits="userSpaceOnUse" x="121" y="149" width="44" height="35">
<path d="M127.614 149.708H158.147C159.866 149.708 161.515 150.393 162.731 151.609C163.947 152.825 164.632 154.474 164.632 156.193V176.875C164.632 178.595 163.947 180.247 162.731 181.463C161.515 182.679 159.866 183.36 158.147 183.36H127.614C125.895 183.36 124.246 182.679 123.03 181.463C121.814 180.247 121.132 178.595 121.132 176.875V156.193C121.132 154.474 121.814 152.825 123.03 151.609C124.246 150.393 125.895 149.708 127.614 149.708Z" fill="white"/>
</mask>
<g mask="url(#mask15_911_421)">
<path d="M127.614 149.708H158.147C159.866 149.708 161.515 150.393 162.731 151.609C163.947 152.825 164.632 154.474 164.632 156.193V176.875C164.632 178.595 163.947 180.247 162.731 181.463C161.515 182.679 159.866 183.36 158.147 183.36H127.614C125.895 183.36 124.246 182.679 123.03 181.463C121.814 180.247 121.132 178.595 121.132 176.875V156.193C121.132 154.474 121.814 152.825 123.03 151.609C124.246 150.393 125.895 149.708 127.614 149.708Z" stroke="#444444" stroke-width="20"/>
</g>
</g>
<mask id="mask16_911_421" style="mask-type:luminance" maskUnits="userSpaceOnUse" x="193" y="149" width="44" height="35">
<path d="M193.242 149.708H236.871V183.314H193.242V149.708Z" fill="white"/>
</mask>
<g mask="url(#mask16_911_421)">
<mask id="mask17_911_421" style="mask-type:luminance" maskUnits="userSpaceOnUse" x="193" y="149" width="44" height="35">
<path d="M199.725 149.708H230.257C231.977 149.708 233.626 150.393 234.842 151.609C236.058 152.825 236.742 154.474 236.742 156.193V176.875C236.742 178.595 236.058 180.247 234.842 181.463C233.626 182.679 231.977 183.36 230.257 183.36H199.725C198.005 183.36 196.356 182.679 195.14 181.463C193.924 180.247 193.242 178.595 193.242 176.875V156.193C193.242 154.474 193.924 152.825 195.14 151.609C196.356 150.393 198.005 149.708 199.725 149.708Z" fill="white"/>
</mask>
<g mask="url(#mask17_911_421)">
<path d="M199.725 149.708H230.257C231.977 149.708 233.626 150.393 234.842 151.609C236.058 152.825 236.742 154.474 236.742 156.193V176.875C236.742 178.595 236.058 180.247 234.842 181.463C233.626 182.679 231.977 183.36 230.257 183.36H199.725C198.005 183.36 196.356 182.679 195.14 181.463C193.924 180.247 193.242 178.595 193.242 176.875V156.193C193.242 154.474 193.924 152.825 195.14 151.609C196.356 150.393 198.005 149.708 199.725 149.708Z" stroke="#444444" stroke-width="20"/>
</g>
</g>
<mask id="mask18_911_421" style="mask-type:luminance" maskUnits="userSpaceOnUse" x="265" y="149" width="44" height="35">
<path d="M265.349 149.708H308.942V183.314H265.349V149.708Z" fill="white"/>
</mask>
<g mask="url(#mask18_911_421)">
<mask id="mask19_911_421" style="mask-type:luminance" maskUnits="userSpaceOnUse" x="265" y="149" width="44" height="35">
<path d="M271.835 149.708H302.367C304.087 149.708 305.736 150.393 306.952 151.609C308.168 152.825 308.85 154.474 308.85 156.193V176.875C308.85 178.595 308.168 180.247 306.952 181.463C305.736 182.679 304.087 183.36 302.367 183.36H271.835C270.115 183.36 268.466 182.679 267.25 181.463C266.034 180.247 265.349 178.595 265.349 176.875V156.193C265.349 154.474 266.034 152.825 267.25 151.609C268.466 150.393 270.115 149.708 271.835 149.708Z" fill="white"/>
</mask>
<g mask="url(#mask19_911_421)">
<path d="M271.835 149.708H302.367C304.087 149.708 305.736 150.393 306.952 151.609C308.168 152.825 308.85 154.474 308.85 156.193V176.875C308.85 178.595 308.168 180.247 306.952 181.463C305.736 182.679 304.087 183.36 302.367 183.36H271.835C270.115 183.36 268.466 182.679 267.25 181.463C266.034 180.247 265.349 178.595 265.349 176.875V156.193C265.349 154.474 266.034 152.825 267.25 151.609C268.466 150.393 270.115 149.708 271.835 149.708Z" stroke="#444444" stroke-width="20"/>
</g>
</g>
<mask id="mask20_911_421" style="mask-type:luminance" maskUnits="userSpaceOnUse" x="337" y="149" width="45" height="35">
<path d="M337.46 149.708H381.089V183.314H337.46V149.708Z" fill="white"/>
</mask>
<g mask="url(#mask20_911_421)">
<mask id="mask21_911_421" style="mask-type:luminance" maskUnits="userSpaceOnUse" x="337" y="149" width="44" height="35">
<path d="M343.945 149.708H374.478C376.197 149.708 377.846 150.393 379.062 151.609C380.278 152.825 380.96 154.474 380.96 156.193V176.875C380.96 178.595 380.278 180.247 379.062 181.463C377.846 182.679 376.197 183.36 374.478 183.36H343.945C342.226 183.36 340.577 182.679 339.361 181.463C338.144 180.247 337.46 178.595 337.46 176.875V156.193C337.46 154.474 338.144 152.825 339.361 151.609C340.577 150.393 342.226 149.708 343.945 149.708Z" fill="white"/>
</mask>
<g mask="url(#mask21_911_421)">
<path d="M343.945 149.708H374.478C376.197 149.708 377.846 150.393 379.062 151.609C380.278 152.825 380.96 154.474 380.96 156.193V176.875C380.96 178.595 380.278 180.247 379.062 181.463C377.846 182.679 376.197 183.36 374.478 183.36H343.945C342.226 183.36 340.577 182.679 339.361 181.463C338.144 180.247 337.46 178.595 337.46 176.875V156.193C337.46 154.474 338.144 152.825 339.361 151.609C340.577 150.393 342.226 149.708 343.945 149.708Z" stroke="#444444" stroke-width="20"/>
</g>
</g>
<mask id="mask22_911_421" style="mask-type:luminance" maskUnits="userSpaceOnUse" x="409" y="149" width="45" height="35">
<path d="M409.57 149.708H453.199V183.314H409.57V149.708Z" fill="white"/>
</mask>
<g mask="url(#mask22_911_421)">
<mask id="mask23_911_421" style="mask-type:luminance" maskUnits="userSpaceOnUse" x="409" y="149" width="45" height="35">
<path d="M416.055 149.708H446.588C448.308 149.708 449.957 150.393 451.173 151.609C452.389 152.825 453.07 154.474 453.07 156.193V176.875C453.07 178.595 452.389 180.247 451.173 181.463C449.957 182.679 448.308 183.36 446.588 183.36H416.055C414.336 183.36 412.687 182.679 411.471 181.463C410.255 180.247 409.57 178.595 409.57 176.875V156.193C409.57 154.474 410.255 152.825 411.471 151.609C412.687 150.393 414.336 149.708 416.055 149.708Z" fill="white"/>
</mask>
<g mask="url(#mask23_911_421)">
<path d="M416.055 149.708H446.588C448.308 149.708 449.957 150.393 451.173 151.609C452.389 152.825 453.07 154.474 453.07 156.193V176.875C453.07 178.595 452.389 180.247 451.173 181.463C449.957 182.679 448.308 183.36 446.588 183.36H416.055C414.336 183.36 412.687 182.679 411.471 181.463C410.255 180.247 409.57 178.595 409.57 176.875V156.193C409.57 154.474 410.255 152.825 411.471 151.609C412.687 150.393 414.336 149.708 416.055 149.708Z" stroke="#444444" stroke-width="20"/>
</g>
</g>
<mask id="mask24_911_421" style="mask-type:luminance" maskUnits="userSpaceOnUse" x="207" y="224" width="108" height="122">
<path d="M207.042 224.828H314.444V345.103H207.042V224.828Z" fill="white"/>
</mask>
<g mask="url(#mask24_911_421)">
<mask id="mask25_911_421" style="mask-type:luminance" maskUnits="userSpaceOnUse" x="207" y="225" width="108" height="121">
<path d="M309.838 277.245L220.863 226.4C218.005 224.766 214.492 224.779 211.642 226.431C208.795 228.086 207.042 231.129 207.042 234.421V335.863C207.042 339.155 208.795 342.201 211.642 343.853C214.492 345.505 218.005 345.517 220.863 343.884L309.838 293.038C312.673 291.42 314.423 288.408 314.423 285.143C314.423 281.879 312.673 278.864 309.838 277.245Z" fill="white"/>
</mask>
<g mask="url(#mask25_911_421)">
<path d="M309.838 277.245L220.863 226.4C218.005 224.766 214.492 224.779 211.642 226.431C208.795 228.086 207.042 231.129 207.042 234.421V335.863C207.042 339.155 208.795 342.201 211.642 343.853C214.492 345.505 218.005 345.517 220.863 343.884L309.838 293.038C312.673 291.42 314.423 288.408 314.423 285.143C314.423 281.879 312.673 278.864 309.838 277.245Z" stroke="#444444" stroke-width="20"/>
</g>
</g>
<path d="M340.26 279.174L360.632 291.865" stroke="#444444" stroke-width="10" stroke-linecap="round"/>
<path d="M383.039 258.25L383.017 282.254" stroke="#444444" stroke-width="10" stroke-linecap="round"/>
<path d="M340.785 323.085L363.186 314.46" stroke="#444444" stroke-width="10" stroke-linecap="round"/>
<path d="M517.338 360.472L500.768 389.171" stroke="#444444" stroke-width="10" stroke-linecap="round"/>
</svg>
