<svg width="191" height="382" viewBox="0 0 191 382" fill="none" xmlns="http://www.w3.org/2000/svg">
<path d="M25.5 95.5V225.5C25.5 225.5 28.0604 245.101 34.5 255.5C40.1699 264.656 45.2432 268.731 54 275C59.8292 279.173 63.1405 281.916 70 284C84.4833 288.4 94.0443 287.237 107.5 284C115.827 281.997 120.261 279.577 127.5 275C136.959 269.019 142.545 264.976 148.5 255.5C154.979 245.19 157 225.5 157 225.5V95.5C157 95.5 154.063 77.7679 148.5 68C142.552 57.5555 137.678 51.8925 127.5 45.5C120.376 41.026 115.682 39.4561 107.5 37.5C97.382 35.0809 88.3411 33.1566 70 37.5C70 37.5 61.8263 42.0012 57 45.5C46.9392 52.7935 40.8835 57.3386 34.5 68C28.6952 77.695 25.5 95.5 25.5 95.5Z" fill="white"/>
<path d="M165 15.5C161.174 24.3513 157.463 28.1311 147 32C157.099 36.8154 161.37 40.4331 165 49.5C168.834 41.3015 172.496 37.2809 184 32C174.404 28.55 170.237 25.0184 165 15.5Z" fill="white"/>
<path d="M15.1042 234.395L15.1043 110.955" stroke="#444444" stroke-width="8" stroke-linecap="round"/>
<path d="M146.746 234.63L146.746 112.836" stroke="#444444" stroke-width="8" stroke-linecap="round"/>
<path d="M4.76086 243.537L4.76098 243.537" stroke="#444444" stroke-width="8" stroke-linecap="round"/>
<path d="M156.149 243.537L156.149 243.537" stroke="#444444" stroke-width="8" stroke-linecap="round"/>
<path d="M81.8245 43.3467C119.839 43.8289 150.507 74.836 150.507 113.016L150.501 113.916C150.396 122.242 148.832 130.215 146.054 137.593V114.113H142.496C142.503 113.748 142.507 113.382 142.507 113.016C142.507 78.9435 114.926 51.3408 80.925 51.3408C46.9243 51.3408 19.3431 78.9435 19.343 113.016C19.343 113.382 19.3474 113.748 19.3538 114.113H15.7961V137.591C13.0186 130.214 11.4542 122.241 11.3489 113.916L11.343 113.016C11.3431 74.5353 42.496 43.3408 80.925 43.3408L81.8245 43.3467Z" fill="#444444"/>
<path d="M80.0258 302.172C42.0114 301.69 11.3432 270.683 11.3431 232.503L11.349 231.603C11.4543 223.277 13.0183 215.304 15.7963 207.926L15.7963 231.406L19.3539 231.406C19.3475 231.771 19.3431 232.137 19.3431 232.503C19.3432 266.576 46.9246 294.178 80.9252 294.178C114.926 294.178 142.507 266.576 142.507 232.503C142.507 232.137 142.503 231.771 142.496 231.406L146.054 231.406L146.054 207.928C148.832 215.305 150.396 223.278 150.501 231.603L150.507 232.503C150.507 270.984 119.354 302.178 80.9252 302.178L80.0258 302.172Z" fill="#444444"/>
<path d="M79.4229 315.059C38.4615 314.536 4.93501 282.964 0.999992 242.647L9.04296 242.647C12.9765 278.914 43.4898 307.065 80.4551 307.065C117.42 307.065 147.935 278.914 151.868 242.647L159.91 242.647C155.942 283.302 121.884 315.065 80.4551 315.065L79.4229 315.059Z" fill="#444444"/>
<path d="M80.7128 377.06L80.7128 315.614" stroke="#444444" stroke-width="8" stroke-linecap="round"/>
<path d="M126.797 378L34.6284 378" stroke="#444444" stroke-width="8" stroke-linecap="round"/>
<path d="M39.9578 171.17H15.2698" stroke="#444444" stroke-width="8" stroke-linecap="round"/>
<path d="M144.901 171.17H120.214" stroke="#444444" stroke-width="8" stroke-linecap="round"/>
<path d="M39.9578 204.636H15.2698" stroke="#444444" stroke-width="8" stroke-linecap="round"/>
<path d="M144.901 204.636H120.214" stroke="#444444" stroke-width="8" stroke-linecap="round"/>
<path d="M39.9578 137.704H15.2698" stroke="#444444" stroke-width="8" stroke-linecap="round"/>
<path d="M144.901 137.704H120.214" stroke="#444444" stroke-width="8" stroke-linecap="round"/>
<path d="M153.49 25.6621C153.96 23.672 156.719 23.6095 157.331 25.4756L157.383 25.6621L158.669 31.1084C159.401 34.2104 161.565 36.7713 164.487 38.0137L164.772 38.1299L173.368 41.4775C175.014 42.1185 175.066 44.3946 173.522 45.1377L173.368 45.2051L164.772 48.5527C161.803 49.7093 159.568 52.2091 158.744 55.2754L158.669 55.5732L157.383 61.0205C156.913 63.0103 154.155 63.0726 153.542 61.207L153.49 61.0205L152.204 55.5732C151.472 52.4716 149.307 49.9113 146.386 48.6689L146.101 48.5527L137.505 45.2051C135.859 44.5641 135.807 42.2869 137.351 41.5439L137.505 41.4775L146.101 38.1299C149.07 36.9733 151.305 34.4733 152.129 31.4072L152.204 31.1084L153.49 25.6621Z" stroke="#444444" stroke-width="8"/>
<path d="M180.399 55.1035C182.608 55.1037 184.399 56.8946 184.399 59.1035V60.2861C184.399 60.8384 184.847 61.2861 185.399 61.2861H186.581L186.787 61.291C188.9 61.3984 190.581 63.1462 190.581 65.2861C190.581 67.426 188.9 69.1739 186.787 69.2812L186.581 69.2861H185.399C184.847 69.2861 184.399 69.7338 184.399 70.2861V71.4678L184.394 71.6738C184.287 73.787 182.539 75.4676 180.399 75.4678C178.259 75.4678 176.511 73.7871 176.404 71.6738L176.399 71.4678V70.2861C176.399 69.7338 175.951 69.2861 175.399 69.2861H174.216C172.008 69.2859 170.216 67.4951 170.216 65.2861C170.216 63.0771 172.007 61.2863 174.216 61.2861H175.399C175.951 61.2861 176.399 60.8384 176.399 60.2861V59.1035C176.399 56.8945 178.19 55.1035 180.399 55.1035Z" fill="#444444"/>
</svg>
